<?xml version="1.0" standalone="no"?>
<!DOCTYPE svg PUBLIC "-//W3C//DTD SVG 1.1//EN" "http://www.w3.org/Graphics/SVG/1.1/DTD/svg11.dtd" >
<svg xmlns="http://www.w3.org/2000/svg">
<metadata>Generated by IcoMoon</metadata>
<defs>
<font id="icomoon" horiz-adv-x="1024">
<font-face units-per-em="1024" ascent="960" descent="-64" />
<missing-glyph horiz-adv-x="1024" />
<glyph unicode="&#x20;" horiz-adv-x="512" d="" />
<glyph unicode="&#xe900;" glyph-name="le_white" horiz-adv-x="1321" d="M1154 616.791h-76.697v39.394c0 31.525-25.556 57.081-57.081 57.081s-57.081-25.556-57.081-57.081v0-39.394h-76.778v39.394c1.833 72.503 61.044 130.579 133.819 130.579s131.985-58.075 133.815-130.409l0.003-0.17zM1184.952 616.791h-329.622c-14.111-0.091-25.521-11.529-25.566-25.642v-243.764c0.046-14.101 11.465-25.52 25.561-25.566h329.626c14.101 0.046 25.52 11.465 25.566 25.561v243.764c-0.045 14.118-11.455 25.555-25.557 25.646h-0.009zM1037.104 456.723v-33.043c0.026-0.347 0.040-0.751 0.040-1.159 0-9.235-7.487-16.722-16.722-16.722s-16.722 7.487-16.722 16.722c0 0.408 0.015 0.812 0.043 1.213l-0.003-0.054v33.043c-10.37 5.937-17.245 16.937-17.245 29.542 0 18.737 15.19 33.927 33.927 33.927s33.927-15.19 33.927-33.927c0-12.605-6.875-23.605-17.079-29.455l-0.166-0.087zM822.046 653.13h-79.511c-12.876 0-23.315 10.438-23.315 23.315s10.438 23.315 23.315 23.315h79.511c12.876 0 23.315-10.438 23.315-23.315s-10.438-23.315-23.315-23.315v0zM878.082 778.225c-0.036 0-0.080 0-0.123 0-5.623 0-10.777 2.004-14.788 5.337l0.038-0.031-62.869 51.694c-5.28 4.334-8.622 10.862-8.622 18.169 0 12.954 10.501 23.455 23.455 23.455 5.646 0 10.826-1.995 14.874-5.318l-0.041 0.033 62.869-51.775c5.211-4.308 8.507-10.773 8.507-18.009 0-12.871-10.43-23.306-23.299-23.315h-0.001zM1020.221 833.136c-12.886 0.046-23.315 10.502-23.315 23.395 0 0 0 0 0 0v0 80.155c0.745 12.317 10.916 22.024 23.355 22.024s22.61-9.707 23.352-21.959l0.003-0.065v-80.396c-0.091-12.807-10.494-23.154-23.314-23.154-0.028 0-0.057 0-0.085 0h0.004zM1162.361 778.225c-0.019 0-0.043 0-0.066 0-12.876 0-23.315 10.438-23.315 23.315 0 7.235 3.296 13.701 8.468 17.977l0.039 0.031 62.95 52.016c3.829 2.845 8.65 4.555 13.87 4.555 12.921 0 23.395-10.474 23.395-23.395 0-6.824-2.921-12.965-7.582-17.242l-0.017-0.016-62.95-52.338c-3.86-3.062-8.802-4.912-14.177-4.912-0.217 0-0.432 0.003-0.648 0.009l0.032-0.001zM1297.908 653.13h-80.396c-12.876 0-23.315 10.438-23.315 23.315s10.438 23.315 23.315 23.315h80.396c12.876 0 23.315-10.438 23.315-23.315s-10.438-23.315-23.315-23.315v0zM0 324.874v259.276h63.030v-204.929h100.414v-54.347zM371.026 413.309v-7.316c0.061-1.045 0.095-2.267 0.095-3.497s-0.035-2.452-0.103-3.666l0.008 0.168h-132.653c0.442-5.2 2.089-9.939 4.659-14.040l-0.077 0.131c2.66-4.268 5.951-7.867 9.791-10.782l0.098-0.071c3.885-2.98 8.391-5.41 13.258-7.059l0.329-0.097c4.626-1.628 9.961-2.57 15.515-2.573h0.001c0.454-0.015 0.987-0.023 1.523-0.023 8.236 0 16.012 1.969 22.883 5.462l-0.288-0.133c6.431 3.444 11.798 8.067 15.991 13.625l0.088 0.122 41.806-26.37c-8.584-12.357-20.032-22.155-33.414-28.561l-0.513-0.221c-13.468-6.118-29.205-9.684-45.776-9.684-1.007 0-2.010 0.013-3.011 0.039l0.148-0.003c-0.262-0.002-0.571-0.003-0.88-0.003-13.598 0-26.645 2.357-38.755 6.686l0.804-0.251c-12.43 4.276-23.137 10.63-32.254 18.735l0.095-0.083c-9.141 8.248-16.461 18.325-21.41 29.673l-0.216 0.556c-5.089 11.707-8.049 25.343-8.049 39.671 0 0.496 0.004 0.992 0.011 1.487l-0.001-0.075c0 0.1-0.001 0.219-0.001 0.338 0 14.392 2.957 28.093 8.296 40.529l-0.256-0.669c5.044 12.025 12.114 22.266 20.88 30.769l0.023 0.022c8.686 8.305 19.033 14.957 30.481 19.401l0.632 0.216c11.284 4.38 24.343 6.917 37.996 6.917 0.294 0 0.587-0.001 0.881-0.004h-0.045c0.344 0.004 0.751 0.007 1.159 0.007 12.92 0 25.26-2.482 36.57-6.995l-0.666 0.235c11.378-4.462 21.061-11.020 28.998-19.269l0.025-0.026c8.090-8.713 14.516-19.097 18.692-30.564l0.201-0.63c4.102-11.621 6.473-25.023 6.473-38.978 0-1.108-0.015-2.212-0.045-3.312l0.003 0.162zM315.714 436.383c0.001 0.105 0.002 0.23 0.002 0.354 0 9.134-3.415 17.47-9.038 23.801l0.032-0.037c-6.168 6.406-14.817 10.386-24.396 10.386-0.893 0-1.777-0.035-2.652-0.102l0.116 0.007c-0.164 0.002-0.357 0.003-0.55 0.003-5.572 0-10.91-1.003-15.843-2.839l0.314 0.102c-4.917-1.512-9.194-3.734-12.967-6.587l0.104 0.075c-3.59-3.093-6.551-6.798-8.746-10.971l-0.098-0.204c-2.048-3.874-3.356-8.43-3.614-13.264l-0.004-0.082zM467.099 462.431v-69.944c-0.052-0.677-0.081-1.465-0.081-2.261 0-6.325 1.859-12.217 5.060-17.158l-0.075 0.123c3.897-4.052 9.366-6.57 15.422-6.57 0.855 0 1.698 0.050 2.527 0.148l-0.1-0.010c3.306 0.018 6.535 0.28 9.69 0.77l-0.364-0.047c2.989 0.389 5.701 1.179 8.219 2.324l-0.179-0.073 0.804-44.057c-4.535-1.545-9.958-2.863-15.536-3.711l-0.544-0.068c-5.727-1.071-12.317-1.685-19.051-1.688h-0.003c-0.608-0.015-1.324-0.023-2.042-0.023-10.259 0-20.117 1.716-29.303 4.875l0.633-0.189c-7.93 2.775-14.639 7.335-19.898 13.219l-0.040 0.046c-4.929 5.73-8.674 12.628-10.766 20.211l-0.087 0.37c-2.097 7.68-3.301 16.499-3.301 25.598 0 0.356 0.002 0.711 0.006 1.067v-0.054 77.18h-28.942v44.62h28.942v48.237h59.010v-48.237h42.851v-44.7zM704.588 453.507c-4.931 4.632-10.603 8.556-16.802 11.562l-0.403 0.176c-5.877 2.747-12.76 4.349-20.017 4.349-0.311 0-0.622-0.003-0.932-0.009l0.047 0.001c-0.149 0.002-0.325 0.003-0.502 0.003-5.475 0-10.666-1.216-15.317-3.393l0.222 0.093c-4.244-1.755-7.175-5.862-7.175-10.654 0-0.24 0.007-0.478 0.022-0.715l-0.002 0.032c-0.001-0.050-0.001-0.109-0.001-0.168 0-5.085 3.348-9.388 7.961-10.825l0.080-0.022c7.042-2.734 15.575-5.257 24.353-7.115l1.132-0.201c8.030-1.742 14.965-3.901 21.631-6.587l-0.889 0.316c7.226-2.75 13.472-6.331 19.044-10.727l-0.151 0.115c5.543-4.341 10.076-9.695 13.375-15.813l0.131-0.266c3.155-6.166 5.004-13.45 5.004-21.167 0-0.473-0.007-0.944-0.021-1.413l0.002 0.069c0.033-0.706 0.051-1.533 0.051-2.365 0-19.184-9.925-36.051-24.921-45.744l-0.213-0.129c-7.189-4.741-15.573-8.405-24.558-10.509l-0.526-0.104c-8.321-2.094-17.874-3.296-27.708-3.296-0.066 0-0.133 0-0.199 0h0.010c-0.051 0-0.112 0-0.173 0-15.618 0-30.624 2.62-44.603 7.444l0.961-0.288c-13.934 4.427-25.892 11.662-35.727 21.094l0.032-0.030 33.686 35.535c5.53-5.945 12.080-10.851 19.387-14.458l0.39-0.174c7.191-3.7 15.693-5.869 24.701-5.869 0.078 0 0.156 0 0.234 0h-0.012c0.347-0.013 0.754-0.020 1.162-0.020 4.847 0 9.45 1.044 13.597 2.918l-0.208-0.084c4.243 2.071 7.114 6.353 7.114 11.307 0 0.35-0.014 0.696-0.042 1.039l0.003-0.045c0 0.012 0 0.026 0 0.040 0 5.696-3.612 10.549-8.672 12.392l-0.092 0.029c-7.712 3.245-16.904 6.151-26.402 8.24l-1.094 0.202c-7.448 1.708-13.811 3.725-19.948 6.185l0.894-0.317c-6.541 2.48-12.184 5.822-17.137 9.964l0.093-0.075c-5.027 4.212-9.152 9.313-12.171 15.083l-0.13 0.272c-3.003 6.068-4.76 13.211-4.76 20.766 0 0.444 0.006 0.887 0.018 1.328l-0.001-0.065c-0.016 0.489-0.025 1.063-0.025 1.64 0 9.72 2.606 18.831 7.156 26.673l-0.137-0.255c4.577 7.62 10.591 13.916 17.717 18.68l0.211 0.133c6.915 4.693 14.95 8.416 23.563 10.727l0.555 0.127c7.982 2.191 17.149 3.453 26.609 3.457h0.002c0.109 0 0.238 0.001 0.367 0.001 14.247 0 27.943-2.354 40.723-6.695l-0.891 0.263c12.911-4.103 24.017-10.693 33.259-19.266l-0.056 0.051zM0 23.953v259.517h174.459v-52.82h-114.001v-49.122h107.811v-50.167h-107.811v-53.946h120.594v-53.463zM339.511 23.953v99.932c0.001 0.168 0.002 0.367 0.002 0.566 0 4.973-0.469 9.836-1.365 14.549l0.076-0.483c-0.774 4.611-2.233 8.744-4.284 12.508l0.104-0.208c-1.912 3.518-4.641 6.376-7.943 8.387l-0.097 0.055c-3.57 1.985-7.83 3.154-12.363 3.154-0.346 0-0.689-0.007-1.032-0.020l0.049 0.002c-0.211 0.005-0.459 0.008-0.708 0.008-4.897 0-9.522-1.161-13.616-3.223l0.174 0.079c-4.043-2.116-7.406-5.016-9.994-8.523l-0.056-0.079c-2.679-3.611-4.754-7.853-5.971-12.443l-0.058-0.259c-1.277-4.332-2.011-9.309-2.011-14.458 0-0.118 0-0.235 0.001-0.353v0.018-98.967h-60.779v182.257h58.287v-25.244h0.724c2.566 4.356 5.439 8.125 8.701 11.516l-0.019-0.020c3.554 3.815 7.662 7.052 12.209 9.598l0.252 0.13c4.448 2.592 9.593 4.834 15.004 6.46l0.512 0.132c5.312 1.633 11.418 2.573 17.744 2.573 0.093 0 0.186 0 0.279-0.001h-0.014c0.623 0.021 1.354 0.033 2.089 0.033 10.556 0 20.54-2.445 29.418-6.8l-0.394 0.175c8.28-4.107 15.209-9.776 20.646-16.676l0.096-0.127c5.114-6.839 9.026-14.906 11.236-23.651l0.1-0.468c2.223-8.122 3.513-17.452 3.537-27.079v-112.568zM554.73 147.441c-3.712 4.566-8.398 8.195-13.753 10.598l-0.236 0.095c-5.254 2.503-11.414 3.981-17.915 4.020h-0.013c-0.178 0.003-0.387 0.005-0.597 0.005-6.048 0-11.762-1.427-16.825-3.962l0.217 0.099c-5.188-2.603-9.569-6.060-13.137-10.234l-0.048-0.057c-3.619-4.195-6.559-9.101-8.573-14.46l-0.11-0.333c-1.936-5.296-3.055-11.411-3.055-17.787 0-0.078 0-0.156 0-0.233v0.012c-0.001-0.107-0.001-0.233-0.001-0.359 0-6.288 1.060-12.329 3.011-17.953l-0.116 0.384c1.973-5.747 4.904-10.699 8.642-14.919l-0.040 0.046c7.531-8.455 18.448-13.755 30.603-13.755 0.264 0 0.528 0.003 0.791 0.007l-0.039-0.001c6.542 0.010 12.786 1.278 18.505 3.576l-0.335-0.119c5.778 2.19 10.645 5.66 14.431 10.082l0.040 0.048 33.364-40.68c-8.126-7.602-17.931-13.518-28.79-17.126l-0.554-0.16c-11.196-3.925-24.103-6.192-37.54-6.192-0.2 0-0.399 0.001-0.598 0.001h0.031c-0.3-0.003-0.654-0.004-1.008-0.004-14.038 0-27.511 2.416-40.027 6.856l0.837-0.259c-12.68 4.251-23.61 10.67-32.9 18.898l0.099-0.086c-9.086 8.439-16.416 18.628-21.476 30.047l-0.231 0.583c-5.036 11.982-7.962 25.909-7.962 40.519s2.926 28.537 8.224 41.227l-0.262-0.707c5.291 11.975 12.621 22.138 21.647 30.496l0.060 0.055c9.142 8.323 20.005 14.941 31.972 19.246l0.668 0.21c11.657 4.281 25.117 6.758 39.156 6.758 0.366 0 0.732-0.002 1.098-0.005h-0.056c0.082 0 0.179 0 0.276 0 6.838 0 13.525-0.644 20.005-1.874l-0.665 0.105c7.331-1.424 13.616-3.147 19.708-5.282l-0.976 0.298c6.168-2.342 11.467-5.046 16.418-8.245l-0.339 0.205c4.92-3.009 9.186-6.328 13.043-10.068l-0.019 0.018zM730.636 157.008c-2.313 0.66-5.048 1.171-7.855 1.433l-0.185 0.014c-2.492 0-5.065 0-7.477 0-0.373 0.012-0.812 0.018-1.252 0.018-6.951 0-13.519-1.64-19.338-4.553l0.25 0.113c-5.214-2.675-9.602-6.241-13.128-10.54l-0.057-0.072c-3.127-3.811-5.576-8.314-7.082-13.23l-0.073-0.277c-1.257-3.797-2.041-8.175-2.169-12.718l-0.001-0.065v-93.581h-59.975v182.739h57.885v-26.129h0.724c4.643 9.387 11.39 17.113 19.657 22.783l0.2 0.13c8.045 5.542 18.002 8.852 28.731 8.852 0.329 0 0.657-0.003 0.984-0.009l-0.049 0.001c1.069 0.058 2.319 0.092 3.578 0.092s2.509-0.033 3.751-0.099l-0.174 0.007c2.079-0.189 3.99-0.588 5.815-1.178l-0.188 0.053zM871.731-3.542c-3.705-9.851-7.817-18.249-12.613-26.187l0.393 0.701c-4.459-7.354-9.796-13.638-15.978-18.969l-0.101-0.085c-6.213-5.17-13.553-9.237-21.573-11.774l-0.456-0.124c-8.273-2.566-17.785-4.045-27.641-4.045-0.769 0-1.535 0.009-2.299 0.027l0.114-0.002c-0.004 0-0.008 0-0.013 0-6.144 0-12.2 0.38-18.144 1.117l0.711-0.072c-5.938 0.704-11.229 1.748-16.37 3.155l0.773-0.18 6.673 50.569c2.648-0.908 5.892-1.744 9.218-2.347l0.43-0.065c2.896-0.517 6.256-0.836 9.683-0.884h0.045c0.738-0.071 1.596-0.112 2.464-0.112 6.781 0 12.983 2.476 17.752 6.574l-0.036-0.030c4.607 5.044 8.229 11.076 10.506 17.732l0.106 0.357 5.869 15.034-76.296 179.604h67.050l40.198-117.297h1.045l36.339 117.297h63.754zM1172.33 115.845c0.001-0.144 0.001-0.315 0.001-0.486 0-12.941-2.149-25.38-6.109-36.98l0.239 0.805c-3.875-11.863-9.603-22.133-16.932-31.034l0.13 0.162c-7.461-8.854-16.553-16.071-26.848-21.244l-0.486-0.221c-10.247-5.082-22.314-8.055-35.076-8.055-0.557 0-1.113 0.006-1.667 0.017l0.083-0.001c-0.203-0.002-0.442-0.003-0.682-0.003-11.404 0-22.226 2.489-31.954 6.953l0.478-0.196c-9.544 4.142-17.463 10.487-23.368 18.42l-0.108 0.152h-0.965v-108.132h-60.136v270.451h57.161v-22.35h1.126c6.346 7.887 14.099 14.357 22.918 19.1l0.397 0.195c9.549 5.084 20.882 8.069 32.911 8.069 0.725 0 1.447-0.011 2.166-0.032l-0.106 0.002c0.134 0.001 0.292 0.001 0.451 0.001 12.9 0 25.106-2.967 35.975-8.255l-0.488 0.215c10.771-5.11 19.851-12.132 27.16-20.71l0.094-0.113c7.326-8.67 13.202-18.847 17.081-29.961l0.204-0.67c3.922-10.735 6.24-23.128 6.351-36.048v-0.050zM1114.043 115.845c0 0.041 0 0.089 0 0.137 0 6.131-1 12.028-2.847 17.537l0.113-0.389c-1.828 5.689-4.572 10.614-8.098 14.866l0.059-0.073c-7.425 8.882-18.509 14.491-30.903 14.491-0.441 0-0.881-0.007-1.319-0.021l0.064 0.002c-0.283 0.007-0.617 0.011-0.952 0.011-6.327 0-12.306-1.489-17.607-4.135l0.229 0.103c-5.411-2.665-9.982-6.233-13.7-10.556l-0.047-0.056c-3.701-4.256-6.697-9.245-8.735-14.701l-0.109-0.333c-1.987-5.121-3.137-11.049-3.137-17.245s1.151-12.123 3.251-17.58l-0.113 0.335c2.146-5.789 5.143-10.778 8.894-15.093l-0.050 0.059c3.805-4.329 8.365-7.888 13.492-10.494l0.256-0.118c5.124-2.541 11.157-4.028 17.538-4.028 0.279 0 0.556 0.003 0.834 0.008l-0.041-0.001c0.234-0.005 0.509-0.007 0.785-0.007 6.492 0 12.638 1.486 18.115 4.136l-0.248-0.108c5.279 2.656 9.722 6.225 13.291 10.544l0.055 0.069c3.483 4.325 6.231 9.412 7.953 14.952l0.087 0.323c1.787 5.174 2.842 11.138 2.894 17.341v0.024zM1268.323 161.751v-70.025c-0.049-0.658-0.076-1.426-0.076-2.2 0-6.383 1.888-12.324 5.135-17.297l-0.074 0.122c3.884-4.049 9.34-6.565 15.383-6.565 0.84 0 1.669 0.049 2.483 0.143l-0.099-0.009c3.304 0.016 6.534 0.278 9.688 0.77l-0.362-0.046c2.991 0.399 5.703 1.189 8.224 2.326l-0.185-0.074 0.724-44.057c-4.541-1.552-9.965-2.87-15.544-3.712l-0.535-0.066c-5.727-1.071-12.317-1.685-19.051-1.688h-0.003c-0.711-0.020-1.549-0.032-2.389-0.032-10.161 0-19.928 1.689-29.034 4.802l0.631-0.188c-7.93 2.775-14.639 7.335-19.898 13.219l-0.040 0.046c-4.99 5.7-8.747 12.611-10.773 20.228l-0.080 0.354c-2.097 7.68-3.301 16.499-3.301 25.598 0 0.356 0.002 0.711 0.006 1.067v-0.054 77.18h-29.344v44.861h28.942v48.237h59.010v-48.237h42.931v-44.7zM565.101 589.135c-0.461 0.025-1.001 0.039-1.544 0.039-16.563 0-30.056-13.146-30.613-29.574l-0.001-0.051c-0.027-0.455-0.042-0.987-0.042-1.523 0-15.363 12.454-27.817 27.817-27.817 0.722 0 1.438 0.028 2.146 0.082l-0.094-0.006c1.54 0.008 3.040 0.153 4.496 0.426l-0.154-0.024c-3.588-12.578-14.014-22.009-26.901-24.093l-0.193-0.026h-2.412v-27.897h3.055c15.173 1.589 28.587 8.095 38.858 17.874l-0.027-0.026c12.777 13.18 20.654 31.176 20.654 51.011 0 1.145-0.026 2.284-0.078 3.417l0.006-0.161c-0.241 22.189-14.873 38.349-34.972 38.349z" />
<glyph unicode="&#xe901;" glyph-name="le-logo-standard" horiz-adv-x="1244" d="M1001.725 610.605h-60.46v31.185c0 24.82-20.365 45.186-45.186 45.186s-45.186-20.365-45.186-45.186v-31.185h-60.46v31.185c0 58.551 47.732 105.646 105.646 105.646 58.551 0 105.646-47.732 105.646-105.646v-31.185zM1026.546 610.605h-260.932c-11.456 0-20.365-8.91-20.365-20.365v-192.835c0-11.456 8.91-20.365 20.365-20.365h260.932c11.456 0 20.365 8.91 20.365 20.365v192.835c-0.636 11.456-9.546 20.365-20.365 20.365zM908.808 483.958v-26.093c0-7.001-5.728-13.365-13.365-13.365-7.001 0-13.365 5.728-13.365 13.365v26.093c-8.273 4.455-13.365 13.365-13.365 23.548 0 14.638 12.092 26.73 26.73 26.73s26.73-12.092 26.73-26.73c0.636-10.183-5.091-19.093-13.365-23.548zM738.884 639.244h-63.006c-10.183 0-18.456 8.273-18.456 18.456s8.273 18.456 18.456 18.456h63.006c10.183 0 18.456-8.273 18.456-18.456s-8.273-18.456-18.456-18.456zM783.433 738.526c-3.819 0-8.273 1.273-11.456 4.455l-49.641 40.731c-7.637 6.364-8.91 17.82-2.546 26.093 6.364 7.637 17.82 8.91 26.093 2.546l49.641-40.731c7.637-6.364 8.91-17.82 2.546-26.093-4.455-4.455-9.546-7.001-14.638-7.001zM896.080 781.802c-10.183 0-18.456 8.273-18.456 18.456v63.642c0 10.183 8.273 18.456 18.456 18.456s18.456-8.273 18.456-18.456v-63.642c0-10.183-8.273-18.456-18.456-18.456zM1008.089 738.526c-5.091 0-10.819 2.546-14.001 7.001-6.364 7.637-5.091 19.729 2.546 26.093l49.641 40.731c7.637 6.364 19.729 5.091 26.093-2.546s5.091-19.729-2.546-26.093l-49.641-40.731c-3.819-3.182-7.637-4.455-12.092-4.455zM1115.644 639.244h-63.642c-10.183 0-18.456 8.273-18.456 18.456s8.273 18.456 18.456 18.456h63.642c10.183 0 18.456-8.273 18.456-18.456s-8.273-18.456-18.456-18.456zM88.462 379.585v205.564h49.641v-162.287h79.553v-43.277h-129.193zM381.852 450.227c0-1.909 0-3.819 0-5.728s0-3.819 0-5.728h-105.009c0.636-3.819 1.909-7.637 3.819-10.819s4.455-6.364 7.637-8.273c3.182-2.546 7.001-4.455 10.819-5.728s8.273-1.909 12.092-1.909c7.637 0 14.001 1.273 19.093 4.455 5.091 2.546 9.546 6.364 12.728 10.819l33.094-21.002c-7.001-10.183-15.911-17.183-26.73-22.911-10.819-5.091-24.184-8.273-38.822-8.273-10.819 0-21.002 1.909-30.548 5.091s-17.82 8.273-25.457 14.638c-7.001 6.364-12.728 14.638-17.183 24.184s-6.364 20.365-6.364 32.457c0 12.092 1.909 22.275 6.364 31.821 3.819 9.546 9.546 17.82 16.547 24.184s15.274 12.092 24.82 15.274c9.546 3.819 19.729 5.728 30.548 5.728s20.365-1.909 29.275-5.091c8.91-3.819 16.547-8.91 22.911-15.274 6.364-7.001 11.456-15.274 14.638-24.82 3.819-10.183 5.728-21.002 5.728-33.094zM337.939 468.047c0 7.637-2.546 14.001-7.001 19.729s-12.092 8.273-21.638 8.273c-4.455 0-8.91-0.636-12.728-1.909s-7.001-3.182-10.183-5.728c-3.182-2.546-5.091-5.728-7.001-8.91s-2.546-7.001-3.182-10.819h61.733zM458.222 488.413v-55.369c0-7.001 1.273-12.092 3.819-15.274s7.001-5.091 14.001-5.091c2.546 0 5.091 0 7.637 0.636s5.091 1.273 6.364 1.909l0.636-35.003c-3.182-1.273-7.637-1.909-12.728-3.182-5.091-0.636-10.183-1.273-15.274-1.273-9.546 0-17.82 1.273-24.184 3.819s-12.092 5.728-15.911 10.183c-3.819 4.455-7.001 10.183-8.273 16.547s-2.546 13.365-2.546 21.002v61.096h-23.548v35.64h22.911v38.185h47.095v-38.185h33.73v-35.64h-33.73zM645.966 481.412c-3.819 3.819-8.273 7.001-13.365 9.546s-10.819 3.819-16.547 3.819c-4.455 0-8.273-0.636-12.092-2.546s-5.728-4.455-5.728-8.91c0-3.819 1.909-7.001 6.364-8.91s10.819-3.819 20.365-5.728c5.728-1.273 10.819-2.546 16.547-5.091s10.183-5.091 14.638-8.273c4.455-3.182 8.273-7.637 10.819-12.728s3.819-10.819 3.819-17.82c0-8.91-1.909-16.547-5.728-22.911s-8.273-11.456-14.638-15.274c-5.728-3.819-12.728-6.364-19.729-8.273-7.637-1.909-14.638-2.546-22.275-2.546-12.092 0-23.548 1.909-34.367 5.728-11.456 3.819-21.002 9.546-28.002 16.547l26.73 28.002c4.455-4.455 9.546-8.273 15.911-11.456s12.728-4.455 19.729-4.455c3.819 0 7.637 0.636 11.456 2.546s5.728 5.091 5.728 9.546c0 4.455-2.546 7.637-7.001 10.183-4.455 1.909-12.092 4.455-21.638 6.364-5.091 1.273-10.183 2.546-15.274 4.455s-9.546 4.455-13.365 7.637c-3.819 3.182-7.001 7.637-9.546 12.092-2.546 5.091-3.819 10.819-3.819 17.183 0 8.91 1.909 15.911 5.728 22.275s8.273 10.819 14.001 14.638c5.728 3.819 12.092 7.001 19.093 8.273 7.001 1.909 14.001 2.546 21.002 2.546 10.819 0 21.638-1.909 31.821-5.091s19.093-8.273 26.093-15.274l-26.73-26.093zM88.462 141.564v205.564h138.103v-42.004h-90.372v-38.822h85.28v-39.458h-85.28v-42.64h95.463v-42.64h-143.195zM357.032 141.564v78.916c0 3.819-0.636 7.637-1.273 11.456s-1.909 7.001-3.182 9.546c-1.273 2.546-3.819 5.091-6.364 6.364-2.546 1.909-6.364 2.546-10.819 2.546s-8.273-0.636-11.456-2.546c-3.182-1.909-5.728-3.819-8.273-7.001-1.909-3.182-3.819-6.364-5.091-10.183s-1.909-7.637-1.909-11.456v-78.28h-47.732v144.467h45.822v-19.729h0.636c1.909 3.182 3.819 6.364 7.001 8.91 2.546 3.182 6.364 5.728 9.546 7.637 3.819 1.909 7.637 3.819 12.092 5.091s8.91 1.909 14.001 1.909c9.546 0 17.82-1.909 24.82-5.091s12.092-8.273 16.547-13.365c4.455-5.728 7.001-12.092 8.91-19.093s2.546-14.001 2.546-21.638v-89.099h-45.822zM527.592 239.572c-2.546 3.182-6.364 6.364-10.819 8.273s-9.546 3.182-14.001 3.182c-5.091 0-9.546-1.273-13.365-3.182s-7.637-4.455-10.183-8.273-5.091-7.001-7.001-11.456c-1.909-4.455-2.546-8.91-2.546-14.001s0.636-9.546 2.546-14.001c1.273-4.455 3.819-8.273 7.001-11.456s6.364-6.364 10.819-8.273c4.455-1.909 8.91-3.182 14.001-3.182s9.546 0.636 14.638 2.546c4.455 1.909 8.273 4.455 11.456 8.273l26.093-32.457c-5.728-5.728-14.001-10.183-22.911-13.365-9.546-3.182-19.729-5.091-29.912-5.091-11.456 0-22.275 1.909-31.821 5.091-10.183 3.182-18.456 8.273-26.093 15.274-7.001 6.364-12.728 14.638-17.183 24.184s-6.364 20.365-6.364 32.457c0 12.092 1.909 22.275 6.364 31.821s10.183 17.82 17.183 24.184c7.001 6.364 15.911 12.092 26.093 15.274 10.183 3.819 20.365 5.091 31.821 5.091 5.091 0 10.183-0.636 15.274-1.273 5.091-1.273 10.183-2.546 14.638-3.819 4.455-1.909 8.91-3.819 13.365-6.364 3.819-2.546 7.637-5.091 10.183-8.273l-29.275-31.185zM666.332 246.573c-1.909 0.636-4.455 1.273-6.364 1.273s-3.819 0-5.728 0c-6.364 0-11.456-1.273-15.911-3.182-4.455-2.546-7.637-5.091-10.183-8.273s-4.455-7.001-5.728-10.819c-1.273-3.819-1.909-7.001-1.909-10.183v-73.825h-47.732v144.467h45.822v-21.002h0.636c3.819 7.637 8.91 13.365 15.911 17.82s14.638 7.001 23.548 7.001c1.909 0 3.819 0 5.728 0s3.182-0.636 4.455-0.636l-2.546-42.64zM778.342 119.925c-3.182-7.637-6.364-14.001-9.546-20.365-3.819-5.728-7.637-10.819-12.728-15.274s-10.819-7.001-17.183-9.546c-6.364-1.909-14.638-3.182-23.548-3.182-4.455 0-8.91 0-14.001 0.636-4.455 0.636-8.91 1.273-12.092 2.546l5.091 40.094c2.546-0.636 5.091-1.273 7.637-1.909s5.091-0.636 7.637-0.636c7.637 0 12.728 1.909 15.911 5.091s6.364 8.273 8.273 14.638l4.455 12.092-60.46 141.922h52.823l32.457-92.917h0.636l28.639 92.917h50.277l-64.278-166.106zM1016.363 214.116c0-10.183-1.273-19.729-4.455-29.275s-7.637-17.183-13.365-24.82c-5.728-7.001-13.365-12.728-21.638-17.183s-18.456-6.364-29.275-6.364c-8.91 0-17.183 1.909-25.457 5.091-7.637 3.819-14.001 8.273-18.456 14.638h-0.636v-85.917h-47.732v213.837h45.186v-17.82h0.636c4.455 5.728 10.819 10.819 18.456 15.274s17.183 6.364 28.002 6.364c10.183 0 19.729-1.909 28.639-6.364 8.273-3.819 15.911-9.546 21.638-16.547s10.183-15.274 13.365-24.184c3.182-7.001 5.091-16.547 5.091-26.73zM969.904 214.116c0 4.455-0.636 8.91-1.909 13.365s-3.819 8.273-6.364 11.456c-2.546 3.182-6.364 6.364-10.819 8.273s-8.91 3.182-14.638 3.182c-5.728 0-10.183-1.273-14.638-3.182s-7.637-5.091-10.819-8.273c-3.182-3.182-5.091-7.637-7.001-12.092s-2.546-8.91-2.546-13.365 0.636-8.91 2.546-13.365c1.909-4.455 3.819-8.273 7.001-12.092 3.182-3.182 6.364-6.364 10.819-8.273s8.91-3.182 14.638-3.182c5.728 0 10.819 1.273 14.638 3.182 4.455 1.909 7.637 5.091 10.819 8.273 2.546 3.182 5.091 7.637 6.364 12.092 1.273 5.091 1.909 9.546 1.909 14.001zM1092.097 250.392v-55.369c0-7.001 1.273-12.092 3.819-15.274s7.001-5.091 14.001-5.091c2.546 0 5.091 0 7.637 0.636s5.091 1.273 6.364 1.909l0.636-35.003c-3.182-1.273-7.637-1.909-12.728-3.182-5.091-0.636-10.183-1.273-15.274-1.273-9.546 0-17.82 1.273-24.184 3.819s-12.092 5.728-15.911 10.183c-3.819 4.455-7.001 10.183-8.273 16.547s-2.546 13.365-2.546 21.002v61.096h-22.911v35.64h22.911v38.185h46.459v-38.185h33.73v-35.64h-33.73zM535.866 588.967c-14.001 0-25.457-10.183-25.457-23.548 0-14.001 9.546-22.911 23.548-22.911 1.273 0 2.546 0 3.182 0.636-2.546-10.183-12.092-17.82-21.638-19.093h-1.909v-22.275h2.546c11.456 1.273 22.275 6.364 30.548 14.001 10.819 10.183 16.547 25.457 16.547 43.277 0 17.183-11.456 29.912-27.366 29.912z" />
<glyph unicode="&#xe902;" horiz-adv-x="3475" d="M554.459 538.026h-79.137v40.63c0 32.451-26.404 58.855-58.855 58.855s-58.855-26.404-58.855-58.855v-40.63h-79.137v40.63c0 76.085 61.897 137.982 137.982 137.982s137.982-61.897 137.982-137.982v-40.63z" />
<glyph unicode="&#xe903;" horiz-adv-x="3475" d="M586.379 538.036h-339.814c-14.51 0-26.376-11.866-26.376-26.376v-251.38c0-14.51 11.866-26.376 26.376-26.376h339.814c14.51 0 26.376 11.866 26.376 26.376v251.37c0.009 14.51-11.866 26.385-26.376 26.385zM433.697 372.986v-34.062c0-9.506-7.715-17.221-17.221-17.221s-17.221 7.715-17.221 17.221v34.052c-10.596 6.009-17.751 17.363-17.751 30.413 0 19.306 15.657 34.962 34.962 34.962s34.962-15.657 34.962-34.962c0.009-13.041-7.146-24.395-17.732-30.404z" />
<glyph unicode="&#xe904;" horiz-adv-x="3475" d="M212.124 575.51h-81.999c-13.297 0-24.073 10.776-24.073 24.073s10.776 24.073 24.073 24.073h81.999c13.297 0 24.073-10.776 24.073-24.073s-10.785-24.073-24.073-24.073z" />
<glyph unicode="&#xe905;" horiz-adv-x="3475" d="M269.88 704.498c-5.374 0-10.795 1.791-15.278 5.478l-64.864 53.33c-10.264 8.444-11.752 23.618-3.298 33.882 8.444 10.264 23.608 11.752 33.882 3.308l64.864-53.33c10.264-8.444 11.752-23.618 3.298-33.882-4.748-5.791-11.648-8.786-18.604-8.786z" />
<glyph unicode="&#xe906;" horiz-adv-x="3475" d="M416.477 761.192c-13.297 0-24.073 10.776-24.073 24.073v82.643c0 13.297 10.776 24.073 24.073 24.073s24.073-10.776 24.073-24.073v-82.643c0-13.297-10.785-24.073-24.073-24.073z" />
<glyph unicode="&#xe907;" horiz-adv-x="3475" d="M563.064 704.498c-6.956 0-13.847 2.995-18.604 8.786-8.444 10.274-6.966 25.437 3.298 33.882l64.864 53.33c10.283 8.444 25.447 6.956 33.882-3.308 8.444-10.274 6.966-25.437-3.298-33.882l-64.864-53.33c-4.483-3.687-9.894-5.478-15.278-5.478z" />
<glyph unicode="&#xe908;" horiz-adv-x="3475" d="M702.828 575.51h-82.776c-13.297 0-24.073 10.776-24.073 24.073s10.776 24.073 24.073 24.073h82.776c13.297 0 24.073-10.776 24.073-24.073s-10.776-24.073-24.073-24.073z" />
<glyph unicode="&#xe909;" horiz-adv-x="3475" d="M810.502 233.905v305.932h74.322v-241.552h118.402v-64.38h-192.724z" />
<glyph unicode="&#xe90a;" horiz-adv-x="3475" d="M1247.924 338.905c0-2.881 0-5.762 0-8.643s-0.152-5.62-0.426-8.217h-155.989c0.578-6.047 2.379-11.525 5.402-16.415 3.023-4.9 6.909-9.146 11.667-12.747 4.748-3.601 10.075-6.416 15.988-8.425 5.904-2.019 12.027-3.023 18.367-3.023 11.24 0 20.737 2.085 28.518 6.265 7.781 4.17 14.112 9.572 19.012 16.206l49.264-31.114c-10.084-14.69-23.409-26.006-39.966-33.92-16.576-7.923-35.796-11.885-57.689-11.885-16.14 0-31.399 2.53-45.804 7.563-14.415 5.033-27.011 12.387-37.815 22.035s-19.306 21.533-25.494 35.654c-6.198 14.112-9.288 30.243-9.288 48.392 0 17.571 3.023 33.484 9.070 47.747 6.056 14.264 14.264 26.357 24.632 36.299s22.613 17.638 36.725 23.115c14.112 5.468 29.38 8.207 45.804 8.207 15.837 0 30.394-2.673 43.644-7.999s24.632-13.031 34.138-23.115c9.506-10.084 16.917-22.329 22.253-36.725 5.317-14.406 7.989-30.821 7.989-49.254zM1182.671 366.124c0 11.231-3.535 20.879-10.586 28.954-7.061 8.065-17.647 12.093-31.759 12.093-6.909 0-13.249-1.080-19.012-3.241s-10.804-5.118-15.126-8.861c-4.322-3.753-7.781-8.141-10.368-13.183s-4.037-10.302-4.322-15.77h91.173z" />
<glyph unicode="&#xe90b;" horiz-adv-x="3475" d="M1361.132 396.376v-82.416c0-10.122 1.943-17.713 5.829-22.774 3.895-5.061 10.871-7.591 20.955-7.591 3.459 0 7.127 0.284 11.022 0.862 3.886 0.578 7.127 1.441 9.724 2.587l0.862-51.851c-4.909-1.725-11.089-3.241-18.576-4.54-7.497-1.298-14.984-1.943-22.471-1.943-14.406 0-26.508 1.81-36.299 5.412-9.8 3.601-17.647 8.805-23.551 15.6-5.914 6.786-10.16 14.87-12.747 24.262s-3.886 19.855-3.886 31.408v90.983h-34.564v52.714h34.138v56.609h69.574v-56.609h50.553v-52.714h-50.562z" />
<glyph unicode="&#xe90c;" horiz-adv-x="3475" d="M1641.133 385.572c-5.762 5.468-12.529 10.075-20.31 13.828-7.781 3.744-15.988 5.611-24.632 5.611-6.634 0-12.747-1.298-18.367-3.886-5.611-2.587-8.425-7.061-8.425-13.401 0-6.047 3.090-10.368 9.288-12.965 6.189-2.587 16.206-5.478 30.034-8.643 8.065-1.734 16.197-4.18 24.414-7.345s15.619-7.345 22.253-12.529c6.625-5.184 11.951-11.525 15.988-19.012 4.028-7.497 6.047-16.415 6.047-26.793 0-13.543-2.739-24.992-8.207-34.356-5.478-9.364-12.605-16.927-21.391-22.689s-18.652-9.932-29.598-12.529c-10.956-2.587-21.902-3.886-32.839-3.886-17.571 0-34.782 2.805-51.633 8.425s-30.896 13.894-42.127 24.85l39.758 41.909c6.331-6.909 14.112-12.681 23.333-17.287 9.212-4.606 19.012-6.909 29.38-6.909 5.762 0 11.449 1.365 17.069 4.104 5.611 2.739 8.425 7.563 8.425 14.472 0 6.625-3.459 11.515-10.368 14.69-6.909 3.165-17.713 6.483-32.403 9.942-7.497 1.725-14.984 4.028-22.471 6.909-7.497 2.872-14.197 6.767-20.092 11.667-5.914 4.9-10.738 10.946-14.472 18.149-3.753 7.193-5.62 15.837-5.62 25.921 0 12.965 2.739 23.978 8.207 33.057s12.529 16.491 21.173 22.253c8.643 5.762 18.216 10.008 28.736 12.747 10.51 2.73 20.955 4.104 31.332 4.104 16.131 0 31.901-2.53 47.311-7.563 15.41-5.042 28.442-12.605 39.104-22.689l-38.895-40.156z" />
<glyph unicode="&#xe90d;" horiz-adv-x="3475" d="M1804.297 233.905v305.932h205.689v-62.219h-134.39v-57.898h127.036v-59.196h-127.036v-63.527h142.162v-63.082h-213.46z" />
<glyph unicode="&#xe90e;" horiz-adv-x="3475" d="M2204.558 233.905v117.53c0 6.047-0.512 11.809-1.516 17.287-1.014 5.468-2.673 10.293-4.966 14.472-2.312 4.17-5.544 7.487-9.724 9.942-4.18 2.445-9.44 3.668-15.77 3.668-6.34 0-11.885-1.223-16.633-3.668-4.748-2.455-8.719-5.838-11.885-10.16-3.175-4.322-5.544-9.288-7.127-14.908s-2.369-11.449-2.369-17.505v-116.667h-71.299v215.195h68.711v-29.816h0.862c2.597 4.606 5.98 9.136 10.16 13.61 4.17 4.464 9.070 8.283 14.69 11.449s11.733 5.753 18.367 7.772c6.625 2.009 13.676 3.023 21.173 3.023 14.406 0 26.641-2.587 36.725-7.781 10.075-5.184 18.216-11.885 24.414-20.092 6.189-8.207 10.653-17.647 13.392-28.3 2.739-10.662 4.104-21.324 4.104-31.977v-133.082h-71.308z" />
<glyph unicode="&#xe90f;" horiz-adv-x="3475" d="M2458.203 379.516c-4.037 5.184-9.506 9.354-16.415 12.529-6.909 3.165-13.979 4.748-21.173 4.748-7.497 0-14.254-1.516-20.31-4.54s-11.24-7.061-15.562-12.103-7.705-10.871-10.15-17.495c-2.455-6.634-3.677-13.685-3.677-21.173 0-7.497 1.147-14.548 3.459-21.163 2.303-6.634 5.686-12.463 10.16-17.505 4.464-5.042 9.79-9.013 15.988-11.885 6.189-2.891 13.183-4.322 20.955-4.322 7.193 0 14.33 1.365 21.391 4.104s12.747 6.701 17.069 11.885l39.322-47.965c-8.937-8.643-20.462-15.41-34.564-20.31-14.121-4.9-29.105-7.345-44.942-7.345-17.003 0-32.868 2.587-47.596 7.772-14.737 5.194-27.532 12.757-38.393 22.689-10.871 9.942-19.419 21.959-25.655 36.090-6.236 14.102-9.345 30.1-9.345 47.965 0 17.571 3.109 33.417 9.345 47.539 6.227 14.112 14.785 26.139 25.655 36.081 10.861 9.942 23.665 17.571 38.393 22.907 14.728 5.326 30.451 7.999 47.169 7.999 7.781 0 15.486-0.72 23.115-2.161s14.974-3.393 22.035-5.838c7.051-2.445 13.534-5.478 19.448-9.079 5.904-3.601 11.022-7.563 15.344-11.875l-41.066-47.548z" />
<glyph unicode="&#xe910;" horiz-adv-x="3475" d="M2665.655 390.756c-3.175 0.862-6.265 1.441-9.288 1.734-3.023 0.284-5.98 0.426-8.861 0.426-9.506 0-17.495-1.734-23.978-5.175-6.483-3.45-11.667-7.61-15.552-12.491-3.895-4.89-6.701-10.207-8.425-15.951-1.734-5.743-2.597-10.766-2.597-15.079v-110.327h-70.863v214.939h68.276v-31.114h0.862c5.468 11.022 13.24 20.016 23.333 26.973 10.075 6.956 21.751 10.444 35 10.444 2.872 0 5.686-0.152 8.425-0.426 2.739-0.294 4.966-0.73 6.701-1.298l-3.033-62.655z" />
<glyph unicode="&#xe911;" horiz-adv-x="3475" d="M2831.965 201.492c-4.322-11.231-9.146-21.239-14.472-30.025s-11.667-16.273-19.012-22.471c-7.345-6.189-15.988-10.871-25.93-14.036-9.932-3.175-21.684-4.758-35.218-4.758-6.625 0-13.467 0.436-20.528 1.298s-13.183 2.019-18.367 3.459l7.781 59.623c3.459-1.147 7.279-2.085 11.449-2.805 4.17-0.711 7.989-1.080 11.449-1.080 10.946 0 18.86 2.53 23.769 7.563 4.89 5.042 9.079 12.179 12.529 21.391l6.909 17.713-89.875 211.736h78.644l47.965-138.276h1.298l42.781 138.276h75.185l-96.357-247.608z" />
<glyph unicode="&#xe912;" horiz-adv-x="3475" d="M3186.289 342.364c0-14.984-2.312-29.38-6.909-43.208-4.616-13.828-11.307-25.997-20.092-36.517-8.795-10.52-19.524-18.945-32.195-25.286-12.681-6.331-27.077-9.506-43.208-9.506-13.249 0-25.788 2.673-37.597 7.999-11.818 5.326-21.030 12.596-27.655 21.827h-0.862v-127.472h-70.863v318.888h67.404v-26.357h1.298c6.625 8.643 15.77 16.197 27.437 22.689s25.419 9.724 41.265 9.724c15.562 0 29.664-3.023 42.345-9.079 12.671-6.047 23.4-14.254 32.185-24.632 8.786-10.368 15.562-22.405 20.31-36.081 4.758-13.685 7.137-28.015 7.137-42.99zM3117.587 342.364c0 6.909-1.080 13.676-3.241 20.31-2.161 6.625-5.336 12.453-9.506 17.495-4.18 5.042-9.44 9.146-15.77 12.321-6.34 3.165-13.685 4.748-22.035 4.748-8.065 0-15.268-1.583-21.609-4.748-6.34-3.175-11.743-7.345-16.197-12.529-4.473-5.184-7.923-11.089-10.368-17.723-2.455-6.625-3.677-13.392-3.677-20.31s1.223-13.685 3.677-20.31c2.445-6.634 5.904-12.529 10.368-17.723 4.464-5.184 9.866-9.354 16.197-12.529 6.331-3.165 13.543-4.748 21.609-4.748 8.35 0 15.695 1.583 22.035 4.748 6.331 3.175 11.591 7.345 15.77 12.529 4.17 5.194 7.345 11.164 9.506 17.941 2.161 6.767 3.241 13.61 3.241 20.528z" />
<glyph unicode="&#xe913;" horiz-adv-x="3475" d="M3299.506 396.376v-82.416c0-10.122 1.943-17.713 5.829-22.774 3.895-5.061 10.871-7.591 20.955-7.591 3.459 0 7.127 0.284 11.022 0.862s7.127 1.441 9.724 2.597l0.862-51.861c-4.909-1.734-11.089-3.241-18.576-4.54-7.497-1.298-14.984-1.943-22.471-1.943-14.406 0-26.508 1.801-36.299 5.412-9.8 3.601-17.647 8.805-23.551 15.6-5.914 6.786-10.16 14.87-12.747 24.262s-3.886 19.855-3.886 31.408v90.983h-34.574v52.714h34.138v56.609h69.574v-56.609h50.553v-52.714h-50.553z" />
<glyph unicode="&#xe914;" horiz-adv-x="3475" d="M1476.69 545.703c-21.258 0-37.919-15.325-37.919-34.886 0-20.613 14.017-34.46 34.886-34.46 1.782 0 3.469 0.161 5.051 0.483-3.336-15.249-18.036-26.205-31.93-28.394l-2.824-0.445v-32.896l3.668 0.351c16.851 1.602 33.503 9.269 45.7 21.011 15.903 15.316 24.31 37.445 24.31 63.982-0.009 26.224-17.221 45.255-40.943 45.255z" />
<glyph unicode="&#xe915;" glyph-name="x-sem-juros" horiz-adv-x="819" d="M716.8 789.333h-614.4l-34.133-34.133v-443.733l34.133-34.133h614.4l34.133 34.133v443.733zM682.667 721.067v-68.267h-546.133v68.267zM136.533 345.6v238.933h546.133v-238.933zM170.667 448h136.533v-68.267h-136.533v68.267z" />
<glyph unicode="&#xe916;" glyph-name="whatsapp" d="M487.141 959.51c-270.389-12.981-483.712-238.305-482.977-508.939 0.245-82.537 20.083-160.421 55.351-228.998l-53.882-261.817c-2.939-14.205 9.797-26.451 24.002-23.267l256.429 60.74c65.883-32.819 139.848-51.678 218.221-52.902 276.512-4.164 506.979 215.282 515.551 491.549 9.062 296.105-235.366 537.594-532.696 523.634zM793.288 170.876c-75.19-75.19-174.871-116.581-281.165-116.581-62.209 0-121.724 13.96-177.075 41.391l-35.758 17.879-157.237-37.227 33.064 160.666-17.634 34.533c-28.655 56.086-43.105 116.826-43.105 180.504 0 106.294 41.391 205.976 116.581 281.165 74.21 74.455 175.851 116.581 281.165 116.581 106.294 0 205.976-41.391 281.165-116.581s116.581-174.871 116.581-281.165c-0.245-105.315-42.126-206.71-116.581-281.165zM758.509 341.828l-98.457 28.166c-12.981 3.674-26.941 0-36.248-9.552l-24.002-24.492c-10.042-10.287-25.471-13.715-38.942-8.327-46.534 18.859-144.501 105.804-169.483 149.4-7.103 12.491-6.123 28.166 2.939 39.677l21.063 27.186c8.327 10.531 10.042 24.982 4.409 37.227l-41.391 93.558c-9.797 22.532-38.452 28.9-57.311 13.226-27.431-23.267-60.005-58.535-63.923-97.722-7.103-68.822 22.532-155.768 134.46-260.102 129.072-120.499 232.672-136.419 299.779-120.254 38.207 9.307 68.822 46.289 87.925 76.659 13.226 21.308 2.694 48.739-20.818 55.351z" />
<glyph unicode="&#xe917;" d="M0 960h1024v-1024h-1024v1024z" />
<glyph unicode="&#xe918;" d="M135.663 200.934c68.15-43.222 148.99-68.235 235.648-68.235 243.454 0 440.805 197.373 440.805 440.805 0 6.078-0.128 12.111-0.362 18.126 8.806 6.93 63.267 50.581 76.616 78.643 0 0-44.227-18.38-87.512-22.71-0.085 0-0.191-0.020-0.276-0.020 0 0 0.085 0.043 0.234 0.148 3.988 2.665 59.748 40.622 67.298 85.849 0 0-31.282-16.697-75.081-31.304-7.251-2.409-14.841-4.777-22.667-6.972-28.233 30.131-68.363 48.938-112.909 48.938-85.444 0-154.682-69.217-154.682-154.596 0-12.048 1.386-23.775 4.009-35.034-11.94 0.49-193.769 10.684-317.468 160.483 0 0-73.929-100.926 44.056-204.707 0 0-35.866 1.429-66.808 19.917 0 0-11.365-122.269 122.249-153.531 0 0-26.291-9.958-68.235-2.858 0 0 23.456-98.793 142.166-108.026 0 0-93.87-84.799-227.123-64.903l0.043-0.011z" />
<glyph unicode="&#xe919;" glyph-name="troca-gratis" horiz-adv-x="819" d="M715.162 576.614c-13.926 175.309-163.84 282.624-305.562 282.624-129.434 0-207.258-80.282-207.258-80.282s37.683 15.565 86.835 15.565c109.773 0 225.28-86.016 239.206-217.907h-85.197l177.766-177.766 177.766 177.766h-83.558zM289.997 528.282h85.197l-176.947 176.947-177.766-176.947h83.558c13.926-175.309 163.84-282.624 305.562-282.624 129.434 0 207.258 80.282 207.258 80.282s-37.683-15.565-86.835-15.565c-109.773 0-226.099 86.016-240.026 217.907z" />
<glyph unicode="&#xe91a;" glyph-name="Telefone" horiz-adv-x="819" d="M744.96 343.040l-74.24 74.24c-23.040 23.040-56.32 28.16-84.48 15.36-15.36-5.12-28.16-15.36-40.96-28.16-84.48-81.92-363.52 197.12-279.040 281.6 12.8 12.8 20.48 28.16 28.16 40.96 12.8 28.16 5.12 61.44-15.36 84.48l-76.8 74.24c-35.84 35.84-97.28 25.6-120.32-17.92-25.6-46.080-43.52-115.2-23.040-197.12 43.52-174.080 296.96-427.52 471.040-471.040 81.92-20.48 148.48-2.56 197.12 23.040 46.080 25.6 53.76 84.48 17.92 120.32z" />
<glyph unicode="&#xe91b;" glyph-name="setas_esquerda" horiz-adv-x="819" d="M360.448 550.4l294.912-294.912h-245.76l-294.912 294.912 294.912 294.912h245.76z" />
<glyph unicode="&#xe91c;" glyph-name="setas_direita" horiz-adv-x="819" d="M114.688 845.312h245.76l294.912-294.912-294.912-294.912h-245.76l294.912 294.912z" />
<glyph unicode="&#xe91d;" glyph-name="sacolinha_gradiente_02" horiz-adv-x="791" d="M790.588 97.882l-37.647 559.059c-1.198 14.701-13.35 26.199-28.22 26.353h-131.78v65.882c0 116.706-88.471 210.824-197.647 210.824s-197.647-94.118-197.647-210.824v-65.882h-131.765c-14.885-0.154-27.037-11.652-28.229-26.251l-0.007-0.102-37.647-559.059v-1.882c-0.012-0.734-0.019-1.599-0.019-2.466 0-87.014 70.539-157.553 157.553-157.553 0.867 0 1.733 0.007 2.596 0.021l-0.13-0.002h470.588c0.631-0.009 1.375-0.014 2.12-0.014 87.222 0 157.929 70.707 157.929 157.929 0 1.395-0.018 2.786-0.054 4.172l0.004-0.205zM254.118 749.176c0 84.706 64 154.353 141.176 154.353s141.176-67.765 141.176-154.353v-65.882h-282.353zM630.588-7.529h-470.588c-0.451-0.007-0.984-0.011-1.517-0.011-56.346 0-102.024 45.677-102.024 102.024 0 0.533 0.004 1.066 0.012 1.597l-0.001-0.080 35.765 530.824h606.118l35.765-530.824c0.007-0.451 0.011-0.984 0.011-1.517 0-56.346-45.677-102.024-102.024-102.024-0.533 0-1.066 0.004-1.597 0.012l0.080-0.001z" />
<glyph unicode="&#xe91e;" glyph-name="prancheta-mobile" horiz-adv-x="819" d="M548.64 765.84c-9.2 0-18.4 0-27.52 0-22.080 0-44.080 0-66.16 0-26.72 0-53.36 0-80.080 0-23.040 0-46.16 0-69.2 0-11.2 0-22.48 0.32-33.68 0-0.16 0-0.32 0-0.48 0 7.68-10.16 15.44-20.24 23.12-30.4 7.2 22.24 14.4 44.48 21.68 66.72 1.92 6 3.84 11.92 5.84 17.92-7.68-5.84-15.44-11.76-23.12-17.6 17.92 0 35.84 0 53.76 0 12.96 0 24 10.96 24 24 0 2.72 0.16 5.44 0.48 8.16-0.32-2.16-0.56-4.24-0.88-6.4 0.72 4.96 2 9.76 3.92 14.48-0.8-1.92-1.6-3.84-2.4-5.76 1.36 3.2 2.96 6.32 4.88 9.28 0.080 0.16 1.6 2.64 1.76 2.56 0.080 0-4-4.88-1.84-2.4 1.28 1.44 2.48 2.88 3.84 4.24 1.2 1.2 2.56 2.4 3.84 3.52 1.52 1.28 3.84 2.080-2-1.52 0.72 0.48 1.44 1.040 2.16 1.52 3.040 2.080 6.32 3.76 9.68 5.2-1.92-0.8-3.84-1.6-5.76-2.4 4.64 1.92 9.44 3.2 14.48 3.92-2.16-0.32-4.24-0.56-6.4-0.88 5.2 0.64 10.32 0.64 15.44 0-2.16 0.32-4.24 0.56-6.4 0.88 4.96-0.72 9.76-2 14.48-3.92-1.92 0.8-3.84 1.6-5.76 2.4 3.2-1.36 6.32-2.96 9.28-4.88 0.16-0.080 2.64-1.6 2.56-1.76 0-0.080-4.88 4-2.4 1.84 1.44-1.28 2.88-2.48 4.24-3.84 1.2-1.2 2.4-2.56 3.52-3.84 1.28-1.52 2-3.76-1.52 2 0.48-0.72 1.040-1.44 1.52-2.16 2-3.040 3.76-6.32 5.2-9.68-0.8 1.92-1.6 3.84-2.4 5.76 1.92-4.64 3.2-9.44 3.92-14.48-0.32 2.16-0.56 4.24-0.88 6.4 0.32-2.72 0.48-5.44 0.48-8.16 0-12.96 10.96-24 24-24 17.76 0 35.52 0 53.28 0-7.68 5.84-15.44 11.76-23.12 17.6 7.28-22.48 14.56-44.88 21.84-67.36 1.84-5.76 3.76-11.52 5.6-17.2 3.84-11.92 16.8-20.88 29.52-16.8 11.92 3.84 20.88 16.72 16.8 29.52-7.2 22.24-14.4 44.48-21.68 66.72-1.92 6-3.84 11.92-5.84 17.92-3.28 10.080-12.24 17.6-23.12 17.6-17.76 0-35.52 0-53.28 0 8-8 16-16 24-24 0 15.76-4.48 32.32-13.44 45.36-10.32 14.96-24 25.6-41.040 32.080-30.64 11.6-68.8 1.28-89.28-24.32-12.24-15.44-19.28-33.44-19.28-53.28 8 8 16 16 24 24-17.92 0-35.84 0-53.76 0-10.96 0-19.84-7.52-23.12-17.6-7.28-22.48-14.56-44.88-21.84-67.36-1.84-5.76-3.76-11.52-5.6-17.2-4.88-14.96 8.16-30.4 23.12-30.4 9.2 0 18.4 0 27.52 0 22.080 0 44.080 0 66.16 0 26.72 0 53.36 0 80.080 0 23.040 0 46.16 0 69.2 0 11.2 0 22.4-0.24 33.68 0 0.16 0 0.32 0 0.48 0 12.56 0 24.56 11.040 24 24-0.72 12.96-10.64 24-24.080 24zM654.64 710.16c0-14.24 0-28.48 0-42.72 0-33.92 0-67.84 0-101.76 0-40.88 0-81.76 0-122.64 0-34.72 0-69.44 0-104.080 0-15.84 0.080-31.6 0-47.44 0-3.36-0.24-6.72-0.64-10.16 0.32 2.16 0.56 4.24 0.88 6.4-0.96-6.72-2.72-13.28-5.36-19.6 0.8 1.92 1.6 3.84 2.4 5.76-1.84-4.16-3.92-8.16-6.48-12-0.24-0.4-2-3.44-2.4-3.44 0.4 0 4.4 5.44 1.2 1.6-1.44-1.76-2.96-3.36-4.56-4.96s-3.28-3.12-4.96-4.56c-1.52-1.28-4.64-2.96 1.6 1.2-1.040-0.64-2-1.44-2.96-2.080-3.92-2.64-8.080-4.88-12.4-6.72 1.92 0.8 3.84 1.6 5.76 2.4-6.32-2.64-12.8-4.4-19.6-5.36 2.16 0.32 4.24 0.56 6.4 0.88-6.16-0.8-12.24-0.64-18.4-0.64-9.2 0-18.4 0-27.6 0-31.12 0-62.32 0-93.44 0-38.32 0-76.64 0-115.040 0-32.8 0-65.52 0-98.32 0-14.96 0-29.84-0.080-44.8 0-3.36 0-6.72 0.24-10.080 0.64 2.16-0.32 4.24-0.56 6.4-0.88-6.72 0.96-13.28 2.72-19.6 5.36 1.92-0.8 3.84-1.6 5.76-2.4-4.16 1.84-8.16 3.92-12 6.48-0.4 0.24-3.44 2-3.44 2.4 0-0.4 5.44-4.4 1.6-1.2-1.76 1.44-3.36 2.96-4.96 4.56s-3.12 3.28-4.56 4.96c-1.28 1.52-2.96 4.64 1.2-1.6-0.64 1.040-1.44 2-2.080 2.96-2.64 3.92-4.88 8.080-6.72 12.4 0.8-1.92 1.6-3.84 2.4-5.76-2.64 6.32-4.4 12.8-5.36 19.6 0.32-2.16 0.56-4.24 0.88-6.4-0.8 6.4-0.64 12.88-0.64 19.28 0 9.84 0 19.68 0 29.6 0 33.76 0 67.52 0 101.28 0 41.28 0 82.48 0 123.76 0 35.36 0 70.72 0 106.16 0 16.16-0.080 32.32 0 48.48 0 3.36 0.24 6.72 0.64 10.16-0.32-2.16-0.56-4.24-0.88-6.4 0.96 6.72 2.72 13.28 5.36 19.6-0.8-1.92-1.6-3.84-2.4-5.76 1.84 4.16 3.92 8.16 6.48 12 0.24 0.4 2 3.44 2.4 3.44-0.4 0-4.4-5.44-1.2-1.6 1.44 1.76 2.96 3.36 4.56 4.96s3.28 3.12 4.96 4.56c1.52 1.28 4.64 2.96-1.6-1.2 1.040 0.64 2 1.44 2.96 2.080 3.92 2.64 8.080 4.88 12.4 6.72-1.92-0.8-3.84-1.6-5.76-2.4 6.32 2.64 12.8 4.4 19.6 5.36-2.16-0.32-4.24-0.56-6.4-0.88 9.68 1.2 19.76 0.64 29.44 0.64 13.52 0 27.040 0 40.64 0 3.28 0 6.48 0 9.76 0-7.68 10.16-15.44 20.24-23.12 30.4-4.72-14.48-9.44-29.040-14.16-43.52-4.88-14.96 8.16-30.4 23.12-30.4 9.2 0 18.4 0 27.52 0 22.080 0 44.080 0 66.16 0 26.72 0 53.36 0 80.080 0 23.040 0 46.16 0 69.2 0 11.2 0 22.4-0.24 33.68 0 0.16 0 0.32 0 0.48 0 15.040 0 28 15.44 23.12 30.4-4.72 14.48-9.44 29.040-14.16 43.52-7.68-10.16-15.44-20.24-23.12-30.4 21.28 0 42.48 0 63.76 0 5.12 0 10.080 0 15.2-0.64-2.16 0.32-4.24 0.56-6.4 0.88 6.72-0.96 13.28-2.72 19.6-5.36-1.92 0.8-3.84 1.6-5.76 2.4 4.16-1.84 8.16-3.92 12-6.48 0.4-0.24 3.44-2 3.44-2.4 0 0.4-5.44 4.4-1.6 1.2 1.76-1.44 3.36-2.96 4.96-4.56s3.12-3.28 4.56-4.96c1.28-1.52 2.96-4.64-1.2 1.6 0.64-1.040 1.44-2 2.080-2.96 2.64-3.92 4.88-8.080 6.72-12.4-0.8 1.92-1.6 3.84-2.4 5.76 2.64-6.32 4.4-12.8 5.36-19.6-0.32 2.16-0.56 4.24-0.88 6.4 0.48-3.28 0.64-6.64 0.72-9.92 0.080-12.56 10.96-24.56 24-24 12.96 0.56 24.080 10.56 24 24-0.32 43.84-29.84 83.52-72.24 95.44-11.52 3.2-23.28 3.68-35.12 3.68-11.68 0-23.28 0-34.96 0-8.64 0-17.2 0-25.84 0-15.040 0-28-15.44-23.12-30.4 4.72-14.48 9.44-29.040 14.16-43.52 7.68 10.16 15.44 20.24 23.12 30.4-9.2 0-18.4 0-27.52 0-22.080 0-44.080 0-66.16 0-26.72 0-53.36 0-80.080 0-23.040 0-46.16 0-69.2 0-11.2 0-22.48 0.32-33.68 0-0.16 0-0.32 0-0.48 0 7.68-10.16 15.44-20.24 23.12-30.4 4.72 14.48 9.44 29.040 14.16 43.52 4.88 14.96-8.16 30.4-23.12 30.4-12.16 0-24.4 0-36.56 0-12.56 0-25.28 0.64-37.84-0.16-31.76-1.84-59.52-17.76-77.76-43.68-11.44-16.24-16.88-36.64-16.96-56.32 0-14.48 0-28.96 0-43.44 0-29.28 0-58.56 0-87.84 0-35.68 0-71.28 0-106.96 0-33.12 0-66.32 0-99.44 0-22.24 0-44.48 0-66.72 0-4.24 0-8.56 0-12.8 0.080-24.48 8.88-46.96 24.48-65.6 18.16-21.76 46.64-33.84 74.64-34 3.44 0 6.88 0 10.32 0 21.92 0 43.92 0 65.84 0 33.52 0 66.96 0 100.48 0 35.2 0 70.4 0 105.6 0 26.64 0 53.28 0 79.84 0 18.080 0 36.96-1.2 54.48 4.32 14.72 4.64 28.080 12.4 39.28 22.96 11.36 10.56 19.2 23.68 24.8 38 4.64 11.76 6.080 24.64 6.080 37.2 0 16.96 0 33.92 0 50.88 0 30.72 0 61.44 0 92.16 0 35.68 0 71.44 0 107.12 0 32.32 0 64.56 0 96.88 0 20 0 40.080 0 60.080 0 2.8 0 5.6 0 8.4 0 12.56-11.040 24.56-24 24-12.8-0.72-23.76-10.72-23.76-24.16zM232.64 584.16c11.76 0 23.6 0 35.36 0 28.16 0 56.32 0 84.48 0 34.16 0 68.4 0 102.56 0 29.44 0 58.88 0 88.4 0 14.4 0 28.8-0.32 43.12 0 0.24 0 0.4 0 0.64 0 12.56 0 24.56 11.040 24 24-0.56 13.040-10.56 24-24 24-11.76 0-23.6 0-35.36 0-28.16 0-56.32 0-84.48 0-34.16 0-68.4 0-102.56 0-29.44 0-58.88 0-88.4 0-14.4 0-28.8 0.32-43.12 0-0.24 0-0.4 0-0.64 0-12.56 0-24.56-11.040-24-24s10.48-24 24-24v0zM232.64 454.24c11.76 0 23.6 0 35.36 0 28.16 0 56.32 0 84.48 0 34.16 0 68.4 0 102.56 0 29.44 0 58.88 0 88.4 0 14.4 0 28.8-0.32 43.12 0 0.24 0 0.4 0 0.64 0 12.56 0 24.56 11.040 24 24-0.56 13.040-10.56 24-24 24-11.76 0-23.6 0-35.36 0-28.16 0-56.32 0-84.48 0-34.16 0-68.4 0-102.56 0-29.44 0-58.88 0-88.4 0-14.4 0-28.8 0.32-43.12 0-0.24 0-0.4 0-0.64 0-12.56 0-24.56-11.040-24-24 0.56-13.040 10.48-24 24-24v0zM232.64 324.32c27.44 0 54.88 0 82.32 0 43.44 0 86.88 0 130.24 0 10 0 20 0 30 0 12.56 0 24.56 11.040 24 24-0.56 13.040-10.56 24-24 24-27.44 0-54.88 0-82.32 0-43.44 0-86.88 0-130.24 0-10 0-20 0-30 0-12.56 0-24.56-11.040-24-24 0.56-13.040 10.48-24 24-24v0z" />
<glyph unicode="&#xe91f;" d="M0 960h1024v-1024h-1024v1024z" />
<glyph unicode="&#xe920;" d="M360.861 101.669c-167.123 69.837-275.911 268.862-206.725 470.999 68.44 199.957 289.835 304.672 489.183 230.644 199.915-74.239 298.794-294.828 221.292-492.574-80.236-204.723-295.342-277.155-456.623-226.080 12.057 29.779 25.777 59.162 35.827 89.75 10.093 30.72 16.528 62.64 24.098 92.208 6.516-5.483 13.064-11.295 19.921-16.715 35.639-28.165 75.958-30.9 118.2-20.744 44.887 10.792 80.36 36.243 106.629 73.655 44.429 63.274 60.108 134.859 49.37 210.192-11.104 77.897-57.227 134.268-129.536 162.654-108.947 42.768-212.23 28.37-301.694-50.015-68.806-60.285-91.936-162.485-58.841-242.049 11.471-27.579 29.599-49.224 57.025-62.229 13.9-6.59 19.8-3.903 23.822 10.615 0.299 1.081 0.663 2.146 1.058 3.195 7.703 20.312 5.905 37.012-7.804 56.621-24.981 35.74-20.526 77.113-8.473 116.753 22.856 75.171 90.017 125.328 168.781 126.056 21.099 0.195 42.818-1.613 63.251-6.599 60.777-14.828 100.020-61.831 103.952-124.15 3.155-49.976-4.656-98.526-26.384-144.161-10.758-22.593-24.957-42.683-46.089-56.904-19.852-13.358-41.559-18.742-65.114-12.587-32.453 8.48-50.875 38.086-42.667 70.57 8.507 33.67 19.515 66.712 27.86 100.416 3.528 14.255 5.381 29.736 3.934 44.256-3.948 39.548-41.314 57.991-76.245 38.683-24.467-13.524-36.248-36.129-41.712-62.283-5.629-26.945-2.903-53.502 5.865-79.629 1.762-5.251 2.022-11.738 0.78-17.153-15.87-69.203-32.844-138.164-47.873-207.548-4.386-20.247-3.573-41.629-5.031-62.499-0.276-3.995-0.038-8.031-0.038-13.345z" />
<glyph unicode="&#xe921;" glyph-name="menu-mobile" horiz-adv-x="1053" d="M58.514 960h678.766c35.109 0 58.514-23.406 58.514-58.514s-23.406-58.514-58.514-58.514h-678.766c-35.109 0-58.514 23.406-58.514 58.514s23.406 58.514 58.514 58.514zM58.514 257.829h538.331c35.109 0 58.514-23.406 58.514-58.514s-23.406-58.514-58.514-58.514h-538.331c-35.109 0-58.514 23.406-58.514 58.514s23.406 58.514 58.514 58.514zM58.514 608.914h936.229c35.109 0 58.514-23.406 58.514-58.514s-23.406-58.514-58.514-58.514h-936.229c-35.109 0-58.514 23.406-58.514 58.514s23.406 58.514 58.514 58.514z" />
<glyph unicode="&#xe922;" horiz-adv-x="907" d="M686.659 779.198c8.974 16.688 14.247 36.517 14.247 57.578 0 68.19-55.279 123.47-123.47 123.47-65.792 0-119.565-51.458-123.266-116.323l-0.015-0.327h-0.717c-3.83 65.094-57.554 116.433-123.269 116.433-68.19 0-123.47-55.279-123.47-123.47 0-20.974 5.23-40.726 14.456-58.024l-0.324 0.665c-133.187-80.674-220.833-224.804-220.833-389.406 0-250.597 203.149-453.746 453.746-453.746s453.746 203.149 453.746 453.746c0 164.601-87.645 308.732-218.814 388.269l-2.019 1.137zM453.746 24.251c-201.857 0-365.495 163.638-365.495 365.495 0 0.036 0 0.072 0 0.108v-0.006h730.99c0-0.031 0-0.066 0-0.102 0-201.857-163.638-365.495-365.495-365.495 0 0 0 0-0.001 0h0.001z" />
<glyph unicode="&#xe923;" horiz-adv-x="907" d="M382.388 304.464c0-32.512-26.356-58.868-58.868-58.868s-58.868 26.356-58.868 58.868c0 32.512 26.356 58.868 58.868 58.868s58.868-26.356 58.868-58.868z" />
<glyph unicode="&#xe924;" horiz-adv-x="907" d="M642.841 304.464c0-32.512-26.356-58.868-58.868-58.868s-58.868 26.356-58.868 58.868c0 32.512 26.356 58.868 58.868 58.868s58.868-26.356 58.868-58.868z" />
<glyph unicode="&#xe925;" glyph-name="facebook" d="M0 960v-1024h545.342v395.55h-133.311v161.474h133.311v135.61c0 98.625 79.951 178.576 178.576 178.576h139.367v-145.202h-99.724c-31.338 0-56.744-25.406-56.744-56.744v-112.242h153.963l-21.279-161.474h-132.684v-395.548h317.183v1024h-1024z" />
<glyph unicode="&#xe926;" glyph-name="Entrega-Expressa" horiz-adv-x="819" d="M784.794 726.528l-238.387 77.824c-4.096 1.638-8.192 1.638-13.107 0l-238.387-77.824c-8.192-2.458-13.926-10.65-13.926-19.661v-312.934c0-9.011 5.734-16.384 13.926-19.661l238.387-77.824c2.458-0.819 4.096-0.819 6.554-0.819s4.096 0 6.554 0.819l238.387 78.643c8.192 2.458 13.926 10.65 13.926 19.661v312.115c0 9.011-5.734 16.384-13.926 19.661zM519.373 343.962l-197.427 64.717v270.336l78.643-25.395v-153.19c0-11.469 9.011-20.48 20.48-20.48s20.48 9.011 20.48 20.48v139.264l78.643-25.395-0.819-270.336zM539.853 650.342l-55.706 18.022 39.322 13.926c10.65 4.096 16.384 15.565 12.288 26.214s-15.565 15.565-26.214 12.288l-87.654-31.949-54.886 18.022 172.851 56.525 172.851-56.525-172.851-56.525zM757.76 408.678l-78.643-25.395v88.474c0 11.469-9.011 20.48-20.48 20.48s-19.661-9.011-19.661-20.48v-102.4l-78.643-25.395v270.336l197.427 64.717v-270.336zM185.958 684.749h-144.998c-11.469 0-20.48-9.011-20.48-20.48s9.011-20.48 20.48-20.48h144.998c11.469 0 20.48 9.011 20.48 20.48-0.819 11.469-9.83 20.48-20.48 20.48zM185.958 570.88h-144.998c-11.469 0-20.48-9.011-20.48-20.48s9.011-20.48 20.48-20.48h144.998c11.469 0 20.48 9.011 20.48 20.48s-9.83 20.48-20.48 20.48zM185.958 457.011h-144.998c-11.469 0-20.48-9.011-20.48-20.48s9.011-20.48 20.48-20.48h144.998c11.469 0 20.48 9.011 20.48 20.48s-9.83 20.48-20.48 20.48z" />
<glyph unicode="&#xe927;" glyph-name="Buscar" horiz-adv-x="819" d="M713.851 269.251l-160.891 160.891c-1.802 1.802-3.932 3.113-6.226 3.932 91.259 102.072 87.982 259.523-10.158 357.663-49.152 49.152-114.688 76.349-184.156 76.349-69.632 0-135.004-27.034-184.156-76.349s-76.349-114.688-76.349-184.156c0-69.632 27.034-135.004 76.349-184.156 50.79-50.79 117.473-76.186 184.156-76.186 62.095 0 124.191 21.955 173.507 66.028 0.819-2.294 2.13-4.424 3.932-6.226l160.891-160.891c3.277-3.277 7.373-4.751 11.633-4.751s8.356 1.638 11.633 4.751c6.226 6.39 6.226 16.712-0.164 23.101zM352.42 380.006c-58.327 0-116.654 22.118-161.055 66.519-43.090 42.926-66.683 100.27-66.683 161.055s23.757 117.965 66.683 161.055 100.27 66.683 161.055 66.683 117.965-23.757 161.055-66.683c88.801-88.801 88.801-233.308 0-322.109-44.401-44.401-102.728-66.519-161.055-66.519z" />
<glyph unicode="&#xe928;" glyph-name="noun_loading_392139" horiz-adv-x="819" d="M615.219 431.616c0 0 0.819 1.638 3.277 4.096 2.458 3.277 4.096 5.734 6.554 11.469 5.734 9.83 13.107 24.576 19.661 43.418 3.277 9.011 5.734 19.661 8.192 31.13s4.096 23.757 4.096 36.045c0 6.554 0.819 14.746 0 20.48 0 6.554 0 12.288-1.638 19.661-0.819 6.554-1.638 13.107-3.277 20.48-1.638 6.554-2.458 13.107-4.915 20.48l-2.458 9.83c-0.819 3.277-2.458 6.554-3.277 9.83l-3.277 9.83-4.096 9.011c-2.458 6.554-5.734 12.288-9.011 18.022s-6.554 11.469-10.65 17.203c-3.277 5.734-7.373 10.65-11.469 15.565s-8.192 9.83-12.288 14.746c-4.096 4.915-8.192 9.011-12.288 13.107-2.458 1.638-4.096 4.096-6.554 5.734s-4.096 3.277-6.554 4.915c-8.192 7.373-16.384 13.107-23.757 18.022s-13.926 9.011-19.661 12.288c-11.469 5.734-18.022 9.011-18.022 9.011s7.373-2.458 18.842-6.554c5.734-2.458 13.107-5.734 21.299-9.011 8.192-4.096 17.203-9.011 27.034-14.746 2.458-1.638 4.915-3.277 7.373-4.915s4.915-3.277 7.373-4.915 9.83-7.373 14.746-11.469c4.915-4.096 9.83-8.192 14.746-13.107s9.83-9.83 14.746-14.746c4.915-5.734 9.83-10.65 13.926-17.203 4.096-5.734 9.011-12.288 13.107-18.022l6.554-9.83 5.734-9.83c1.638-3.277 4.096-6.554 5.734-10.65l4.915-10.65c3.277-7.373 5.734-14.746 8.192-22.118s4.915-14.746 6.554-22.118c2.458-7.373 3.277-15.565 4.915-22.938 1.638-8.192 1.638-14.746 2.458-21.299 1.638-15.565 1.638-29.491 0.819-43.418s-2.458-27.034-4.915-38.502c-4.915-23.757-11.469-43.418-17.203-56.525-2.458-6.554-5.734-12.288-6.554-15.565-1.638-3.277-2.458-4.915-2.458-4.915-7.373-16.384-27.034-23.757-43.418-15.565-16.384 7.373-23.757 27.034-15.565 43.418 0.819-2.458 1.638-0.819 2.458 0.819zM410.419 787.968c0 0-1.638 0-4.915 0-4.096 0-7.373 0-13.107 0.819-11.469 0-27.853-0.819-47.514-4.096-9.83-1.638-20.48-4.915-31.13-8.192s-22.118-8.192-32.768-13.926c-5.734-3.277-13.107-6.554-17.203-9.83-4.915-3.277-10.65-6.554-16.384-10.65s-10.65-8.192-15.565-12.288-10.65-9.011-14.746-13.926l-7.373-7.373c-2.458-2.458-4.096-4.915-6.554-8.192l-6.554-8.192-5.734-8.192c-4.096-5.734-7.373-11.469-11.469-17.203s-6.554-11.469-9.83-18.022c-3.277-5.734-5.734-12.288-8.192-18.022s-4.096-12.288-6.554-18.022-3.277-11.469-4.915-17.203c-0.819-2.458-1.638-5.734-2.458-8.192s-0.819-5.734-1.638-8.192c-2.458-10.65-2.458-20.48-3.277-29.491s-0.819-16.384-0.819-22.938c0.819-13.107 0.819-20.48 0.819-20.48s-0.819 6.554-3.277 19.661c-0.819 6.554-1.638 13.926-2.458 22.938s-0.819 19.661-0.819 30.31c0 2.458 0 5.734 0 9.011s0.819 5.734 0.819 9.011 0.819 12.288 2.458 18.842c0.819 6.554 2.458 13.107 4.096 19.661s3.277 13.107 5.734 20.48c2.458 6.554 4.096 13.926 7.373 20.48 2.458 6.554 5.734 13.926 9.83 20.48l4.915 9.83 5.734 9.83c2.458 3.277 4.096 6.554 6.554 9.83l6.554 9.83c4.096 6.554 9.83 12.288 14.746 18.022s10.65 11.469 16.384 17.203c4.915 5.734 11.469 10.65 18.022 15.565 6.554 5.734 11.469 9.011 17.203 13.107 12.288 9.011 24.576 16.384 36.864 22.118 12.288 6.554 24.576 11.469 36.045 15.565 22.938 8.192 43.418 11.469 57.344 13.926 7.373 0.819 13.926 1.638 16.384 1.638 3.277 0 4.915 0.819 4.915 0.819 18.022 1.638 33.587-11.469 35.226-30.31s-11.469-33.587-30.31-35.226c0-0.819-1.638-0.819-2.458-0.819zM203.162 433.254c0 0 3.277-6.554 9.83-18.022 3.277-6.554 6.554-11.469 10.65-17.203 2.458-3.277 4.096-6.554 7.373-9.83s5.734-7.373 9.011-10.65c1.638-1.638 3.277-4.096 4.915-5.734s4.096-3.277 5.734-5.734 7.373-7.373 12.288-11.469c9.011-7.373 18.022-15.565 29.491-21.299 2.458-1.638 5.734-3.277 8.192-4.915s5.734-3.277 9.011-4.915c5.734-2.458 11.469-6.554 18.022-9.011s12.288-4.915 18.842-7.373c6.554-1.638 13.107-4.096 19.661-5.734 13.107-3.277 27.034-5.734 40.96-6.554 3.277 0 6.554-0.819 10.65-0.819 3.277 0 6.554 0 9.83 0 6.554 0 13.926-0.819 20.48 0.819 6.554 0.819 13.107 1.638 19.661 1.638 6.554 0.819 12.288 2.458 18.842 3.277 3.277 0.819 5.734 0.819 9.011 1.638 2.458 0.819 5.734 1.638 8.192 2.458 5.734 1.638 10.65 3.277 16.384 4.915 9.83 4.096 18.842 8.192 27.034 11.469 8.192 4.096 14.746 8.192 20.48 11.469 10.65 6.554 17.203 11.469 17.203 11.469s-7.373-5.734-17.203-13.926c-4.915-4.096-11.469-9.011-18.842-13.926s-16.384-9.83-26.214-15.565c-4.915-2.458-10.65-4.915-15.565-7.373-2.458-1.638-5.734-2.458-8.192-4.096-3.277-1.638-5.734-2.458-9.011-3.277-5.734-2.458-12.288-4.096-18.842-6.554-6.554-1.638-13.926-3.277-20.48-4.915s-13.926-2.458-21.299-3.277c-4.096-0.819-7.373-0.819-11.469-1.638-4.096 0-7.373 0-11.469-0.819-15.565-0.819-31.13 0-46.694 0.819-8.192 0.819-15.565 1.638-23.757 3.277-7.373 1.638-15.565 4.096-22.938 5.734s-14.746 4.915-22.118 7.373c-3.277 1.638-7.373 2.458-10.65 4.096s-6.554 3.277-9.83 4.915c-13.926 5.734-26.214 13.926-37.683 20.48-5.734 4.096-11.469 8.192-16.384 11.469-2.458 1.638-4.915 4.096-8.192 5.734-2.458 2.458-4.915 4.096-7.373 6.554-4.915 4.096-9.011 8.192-13.107 11.469s-7.373 8.192-11.469 12.288c-7.373 7.373-13.107 14.746-16.384 19.661-7.373 10.65-12.288 16.384-12.288 16.384-10.65 14.746-8.192 35.226 6.554 45.875s35.226 8.192 45.875-6.554c1.638-1.638 2.458-3.277 3.277-4.096z" />
</font>
</defs>
</svg>
