<?xml version="1.0" encoding="utf-8"?>
<!-- Generator: Adobe Illustrator 23.0.6, SVG Export Plug-In . SVG Version: 6.00 Build 0)  -->
<svg version="1.1" id="Camada_1" xmlns="http://www.w3.org/2000/svg" xmlns:xlink="http://www.w3.org/1999/xlink" x="0px" y="0px"
	 viewBox="0 0 500 625" style="enable-background:new 0 0 500 625;" xml:space="preserve">
<path d="M435.7,421.6l-98.2-98.2c-1.1-1.1-2.4-1.9-3.8-2.4c55.7-62.3,53.7-158.4-6.2-218.3c-30-30-70-46.6-112.4-46.6
	c-42.5,0-82.4,16.5-112.4,46.6s-46.6,70-46.6,112.4c0,42.5,16.5,82.4,46.6,112.4c31,31,71.7,46.5,112.4,46.5
	c37.9,0,75.8-13.4,105.9-40.3c0.5,1.4,1.3,2.7,2.4,3.8l98.2,98.2c2,2,4.5,2.9,7.1,2.9s5.1-1,7.1-2.9
	C439.6,431.8,439.6,425.5,435.7,421.6z M215.1,354c-35.6,0-71.2-13.5-98.3-40.6c-26.3-26.2-40.7-61.2-40.7-98.3s14.5-72,40.7-98.3
	s61.2-40.7,98.3-40.7s72,14.5,98.3,40.7c54.2,54.2,54.2,142.4,0,196.6C286.3,340.5,250.7,354,215.1,354z"/>
</svg>
