<?xml version="1.0" encoding="utf-8"?>
<!-- Generator: Adobe Illustrator 23.0.6, SVG Export Plug-In . SVG Version: 6.00 Build 0)  -->
<svg version="1.1" id="Camada_1" xmlns="http://www.w3.org/2000/svg" xmlns:xlink="http://www.w3.org/1999/xlink" x="0px" y="0px"
	 viewBox="0 0 18 17.5" style="enable-background:new 0 0 18 17.5;" xml:space="preserve">
<style type="text/css">
	.st0{fill-rule:evenodd;clip-rule:evenodd;}
</style>
<title>Hamburger</title>
<desc>Created with Sketch.</desc>
<g>
	<g transform="translate(-17.000000, -49.000000)">
		<path class="st0" d="M18,49h11.6c0.6,0,1,0.4,1,1s-0.4,1-1,1H18c-0.6,0-1-0.4-1-1S17.4,49,18,49z M18,61h9.2c0.6,0,1,0.4,1,1
			s-0.4,1-1,1H18c-0.6,0-1-0.4-1-1S17.4,61,18,61z M18,55h16c0.6,0,1,0.4,1,1s-0.4,1-1,1H18c-0.6,0-1-0.4-1-1S17.4,55,18,55z"/>
	</g>
</g>
</svg>
