<?xml version="1.0" encoding="utf-8"?>
<!-- Generator: Adobe Illustrator 23.0.6, SVG Export Plug-In . SVG Version: 6.00 Build 0)  -->
<svg version="1.1" id="Camada_1" xmlns="http://www.w3.org/2000/svg" xmlns:xlink="http://www.w3.org/1999/xlink" x="0px" y="0px"
	 viewBox="0 0 100 125" style="enable-background:new 0 0 100 125;" xml:space="preserve">
<path d="M75.1,64.5c0,0,0.1-0.2,0.4-0.5c0.3-0.4,0.5-0.7,0.8-1.4c0.7-1.2,1.6-3,2.4-5.3c0.4-1.1,0.7-2.4,1-3.8
	c0.3-1.4,0.5-2.9,0.5-4.4c0-0.8,0.1-1.8,0-2.5c0-0.8,0-1.5-0.2-2.4c-0.1-0.8-0.2-1.6-0.4-2.5c-0.2-0.8-0.3-1.6-0.6-2.5L78.7,38
	c-0.1-0.4-0.3-0.8-0.4-1.2l-0.4-1.2l-0.5-1.1c-0.3-0.8-0.7-1.5-1.1-2.2s-0.8-1.4-1.3-2.1c-0.4-0.7-0.9-1.3-1.4-1.9s-1-1.2-1.5-1.8
	c-0.5-0.6-1-1.1-1.5-1.6c-0.3-0.2-0.5-0.5-0.8-0.7s-0.5-0.4-0.8-0.6c-1-0.9-2-1.6-2.9-2.2s-1.7-1.1-2.4-1.5
	c-1.4-0.7-2.2-1.1-2.2-1.1s0.9,0.3,2.3,0.8c0.7,0.3,1.6,0.7,2.6,1.1c1,0.5,2.1,1.1,3.3,1.8c0.3,0.2,0.6,0.4,0.9,0.6s0.6,0.4,0.9,0.6
	c0.6,0.4,1.2,0.9,1.8,1.4c0.6,0.5,1.2,1,1.8,1.6c0.6,0.6,1.2,1.2,1.8,1.8c0.6,0.7,1.2,1.3,1.7,2.1c0.5,0.7,1.1,1.5,1.6,2.2L81,34
	l0.7,1.2c0.2,0.4,0.5,0.8,0.7,1.3l0.6,1.3c0.4,0.9,0.7,1.8,1,2.7s0.6,1.8,0.8,2.7c0.3,0.9,0.4,1.9,0.6,2.8c0.2,1,0.2,1.8,0.3,2.6
	c0.2,1.9,0.2,3.6,0.1,5.3s-0.3,3.3-0.6,4.7c-0.6,2.9-1.4,5.3-2.1,6.9c-0.3,0.8-0.7,1.5-0.8,1.9C82.1,67.8,82,68,82,68
	c-0.9,2-3.3,2.9-5.3,1.9c-2-0.9-2.9-3.3-1.9-5.3C74.9,64.9,75,64.7,75.1,64.5z"/>
<path d="M50.1,21c0,0-0.2,0-0.6,0c-0.5,0-0.9,0-1.6-0.1c-1.4,0-3.4,0.1-5.8,0.5c-1.2,0.2-2.5,0.6-3.8,1s-2.7,1-4,1.7
	c-0.7,0.4-1.6,0.8-2.1,1.2c-0.6,0.4-1.3,0.8-2,1.3s-1.3,1-1.9,1.5s-1.3,1.1-1.8,1.7l-0.9,0.9c-0.3,0.3-0.5,0.6-0.8,1l-0.8,1l-0.7,1
	c-0.5,0.7-0.9,1.4-1.4,2.1c-0.5,0.7-0.8,1.4-1.2,2.2c-0.4,0.7-0.7,1.5-1,2.2s-0.5,1.5-0.8,2.2s-0.4,1.4-0.6,2.1
	c-0.1,0.3-0.2,0.7-0.3,1c-0.1,0.3-0.1,0.7-0.2,1c-0.3,1.3-0.3,2.5-0.4,3.6s-0.1,2-0.1,2.8c0.1,1.6,0.1,2.5,0.1,2.5S17.3,54.6,17,53
	c-0.1-0.8-0.2-1.7-0.3-2.8c-0.1-1.1-0.1-2.4-0.1-3.7c0-0.3,0-0.7,0-1.1c0-0.4,0.1-0.7,0.1-1.1c0.1-0.7,0.1-1.5,0.3-2.3
	c0.1-0.8,0.3-1.6,0.5-2.4c0.2-0.8,0.4-1.6,0.7-2.5c0.3-0.8,0.5-1.7,0.9-2.5c0.3-0.8,0.7-1.7,1.2-2.5l0.6-1.2l0.7-1.2
	c0.3-0.4,0.5-0.8,0.8-1.2l0.8-1.2c0.5-0.8,1.2-1.5,1.8-2.2c0.6-0.7,1.3-1.4,2-2.1c0.6-0.7,1.4-1.3,2.2-1.9c0.8-0.7,1.4-1.1,2.1-1.6
	c1.5-1.1,3-2,4.5-2.7c1.5-0.8,3-1.4,4.4-1.9c2.8-1,5.3-1.4,7-1.7c0.9-0.1,1.7-0.2,2-0.2c0.4,0,0.6-0.1,0.6-0.1
	c2.2-0.2,4.1,1.4,4.3,3.7s-1.4,4.1-3.7,4.3C50.4,21,50.2,21,50.1,21z"/>
<path d="M24.8,64.3c0,0,0.4,0.8,1.2,2.2c0.4,0.8,0.8,1.4,1.3,2.1c0.3,0.4,0.5,0.8,0.9,1.2c0.4,0.4,0.7,0.9,1.1,1.3
	c0.2,0.2,0.4,0.5,0.6,0.7s0.5,0.4,0.7,0.7c0.5,0.5,0.9,0.9,1.5,1.4c1.1,0.9,2.2,1.9,3.6,2.6c0.3,0.2,0.7,0.4,1,0.6s0.7,0.4,1.1,0.6
	c0.7,0.3,1.4,0.8,2.2,1.1c0.8,0.3,1.5,0.6,2.3,0.9c0.8,0.2,1.6,0.5,2.4,0.7c1.6,0.4,3.3,0.7,5,0.8c0.4,0,0.8,0.1,1.3,0.1
	c0.4,0,0.8,0,1.2,0c0.8,0,1.7,0.1,2.5-0.1c0.8-0.1,1.6-0.2,2.4-0.2c0.8-0.1,1.5-0.3,2.3-0.4c0.4-0.1,0.7-0.1,1.1-0.2
	c0.3-0.1,0.7-0.2,1-0.3c0.7-0.2,1.3-0.4,2-0.6c1.2-0.5,2.3-1,3.3-1.4c1-0.5,1.8-1,2.5-1.4c1.3-0.8,2.1-1.4,2.1-1.4S70.5,76,69.3,77
	c-0.6,0.5-1.4,1.1-2.3,1.7s-2,1.2-3.2,1.9c-0.6,0.3-1.3,0.6-1.9,0.9c-0.3,0.2-0.7,0.3-1,0.5c-0.4,0.2-0.7,0.3-1.1,0.4
	c-0.7,0.3-1.5,0.5-2.3,0.8c-0.8,0.2-1.7,0.4-2.5,0.6s-1.7,0.3-2.6,0.4c-0.5,0.1-0.9,0.1-1.4,0.2c-0.5,0-0.9,0-1.4,0.1
	c-1.9,0.1-3.8,0-5.7-0.1c-1-0.1-1.9-0.2-2.9-0.4c-0.9-0.2-1.9-0.5-2.8-0.7c-0.9-0.2-1.8-0.6-2.7-0.9c-0.4-0.2-0.9-0.3-1.3-0.5
	c-0.4-0.2-0.8-0.4-1.2-0.6c-1.7-0.7-3.2-1.7-4.6-2.5c-0.7-0.5-1.4-1-2-1.4c-0.3-0.2-0.6-0.5-1-0.7c-0.3-0.3-0.6-0.5-0.9-0.8
	c-0.6-0.5-1.1-1-1.6-1.4s-0.9-1-1.4-1.5c-0.9-0.9-1.6-1.8-2-2.4c-0.9-1.3-1.5-2-1.5-2c-1.3-1.8-1-4.3,0.8-5.6s4.3-1,5.6,0.8
	C24.6,64,24.7,64.2,24.8,64.3z"/>
</svg>
