<?xml version="1.0" encoding="utf-8"?>
<!-- Generator: Adobe Illustrator 23.0.6, SVG Export Plug-In . SVG Version: 6.00 Build 0)  -->
<svg version="1.1" id="Camada_1" xmlns="http://www.w3.org/2000/svg" xmlns:xlink="http://www.w3.org/1999/xlink" x="0px" y="0px"
	 viewBox="0 0 1024 1280" style="enable-background:new 0 0 1024 1280;" xml:space="preserve">
<g>
	<g>
		<g>
			<path d="M685.8,242.7c-11.5,0-23,0-34.4,0c-27.6,0-55.1,0-82.7,0c-33.4,0-66.7,0-100.1,0c-28.8,0-57.7,0-86.5,0
				c-14,0-28.1-0.4-42.1,0c-0.2,0-0.4,0-0.6,0c9.6,12.7,19.3,25.3,28.9,38c9-27.8,18-55.6,27.1-83.4c2.4-7.5,4.8-14.9,7.3-22.4
				c-9.6,7.3-19.3,14.7-28.9,22c22.4,0,44.8,0,67.2,0c16.2,0,30-13.7,30-30c0-3.4,0.2-6.8,0.6-10.2c-0.4,2.7-0.7,5.3-1.1,8
				c0.9-6.2,2.5-12.2,4.9-18.1c-1,2.4-2,4.8-3,7.2c1.7-4,3.7-7.9,6.1-11.6c0.1-0.2,2-3.3,2.2-3.2c0.1,0-5,6.1-2.3,3
				c1.6-1.8,3.1-3.6,4.8-5.3c1.5-1.5,3.2-3,4.8-4.4c1.9-1.6,4.8-2.6-2.5,1.9c0.9-0.6,1.8-1.3,2.7-1.9c3.8-2.6,7.9-4.7,12.1-6.5
				c-2.4,1-4.8,2-7.2,3c5.8-2.4,11.8-4,18.1-4.9c-2.7,0.4-5.3,0.7-8,1.1c6.5-0.8,12.9-0.8,19.3,0c-2.7-0.4-5.3-0.7-8-1.1
				c6.2,0.9,12.2,2.5,18.1,4.9c-2.4-1-4.8-2-7.2-3c4,1.7,7.9,3.7,11.6,6.1c0.2,0.1,3.3,2,3.2,2.2c0,0.1-6.1-5-3-2.3
				c1.8,1.6,3.6,3.1,5.3,4.8c1.5,1.5,3,3.2,4.4,4.8c1.6,1.9,2.5,4.7-1.9-2.5c0.6,0.9,1.3,1.8,1.9,2.7c2.5,3.8,4.7,7.9,6.5,12.1
				c-1-2.4-2-4.8-3-7.2c2.4,5.8,4,11.8,4.9,18.1c-0.4-2.7-0.7-5.3-1.1-8c0.4,3.4,0.6,6.8,0.6,10.2c0,16.2,13.7,30,30,30
				c22.2,0,44.4,0,66.6,0c-9.6-7.3-19.3-14.7-28.9-22c9.1,28.1,18.2,56.1,27.3,84.2c2.3,7.2,4.7,14.4,7,21.5
				c4.8,14.9,21,26.1,36.9,21c14.9-4.8,26.1-20.9,21-36.9c-9-27.8-18-55.6-27.1-83.4c-2.4-7.5-4.8-14.9-7.3-22.4
				c-4.1-12.6-15.3-22-28.9-22c-22.2,0-44.4,0-66.6,0c10,10,20,20,30,30c0-19.7-5.6-40.4-16.8-56.7c-12.9-18.7-30-32-51.3-40.1
				c-38.3-14.5-86-1.6-111.6,30.4C419.8,119.7,411,142.2,411,167c10-10,20-20,30-30c-22.4,0-44.8,0-67.2,0c-13.7,0-24.8,9.4-28.9,22
				c-9.1,28.1-18.2,56.1-27.3,84.2c-2.3,7.2-4.7,14.4-7,21.5c-6.1,18.7,10.2,38,28.9,38c11.5,0,23,0,34.4,0c27.6,0,55.1,0,82.7,0
				c33.4,0,66.7,0,100.1,0c28.8,0,57.7,0,86.5,0c14,0,28,0.3,42.1,0c0.2,0,0.4,0,0.6,0c15.7,0,30.7-13.8,30-30
				C715,256.5,702.6,242.7,685.8,242.7z"/>
		</g>
	</g>
	<g>
		<g>
			<path d="M818.3,312.3c0,17.8,0,35.6,0,53.4c0,42.4,0,84.8,0,127.2c0,51.1,0,102.2,0,153.3c0,43.4,0,86.8,0,130.1
				c0,19.8,0.1,39.5,0,59.3c0,4.2-0.3,8.4-0.8,12.7c0.4-2.7,0.7-5.3,1.1-8c-1.2,8.4-3.4,16.6-6.7,24.5c1-2.4,2-4.8,3-7.2
				c-2.3,5.2-4.9,10.2-8.1,15c-0.3,0.5-2.5,4.3-3,4.3c0.5,0,5.5-6.8,1.5-2c-1.8,2.2-3.7,4.2-5.7,6.2s-4.1,3.9-6.2,5.7
				c-1.9,1.6-5.8,3.7,2-1.5c-1.3,0.8-2.5,1.8-3.7,2.6c-4.9,3.3-10.1,6.1-15.5,8.4c2.4-1,4.8-2,7.2-3c-7.9,3.3-16,5.5-24.5,6.7
				c2.7-0.4,5.3-0.7,8-1.1c-7.7,1-15.3,0.8-23,0.8c-11.5,0-23,0-34.5,0c-38.9,0-77.9,0-116.8,0c-47.9,0-95.8,0-143.8,0
				c-41,0-81.9,0-122.9,0c-18.7,0-37.3,0.1-56,0c-4.2,0-8.4-0.3-12.6-0.8c2.7,0.4,5.3,0.7,8,1.1c-8.4-1.2-16.6-3.4-24.5-6.7
				c2.4,1,4.8,2,7.2,3c-5.2-2.3-10.2-4.9-15-8.1c-0.5-0.3-4.3-2.5-4.3-3c0,0.5,6.8,5.5,2,1.5c-2.2-1.8-4.2-3.7-6.2-5.7
				s-3.9-4.1-5.7-6.2c-1.6-1.9-3.7-5.8,1.5,2c-0.8-1.3-1.8-2.5-2.6-3.7c-3.3-4.9-6.1-10.1-8.4-15.5c1,2.4,2,4.8,3,7.2
				c-3.3-7.9-5.5-16-6.7-24.5c0.4,2.7,0.7,5.3,1.1,8c-1-8-0.8-16.1-0.8-24.1c0-12.3,0-24.6,0-37c0-42.2,0-84.4,0-126.6
				c0-51.6,0-103.1,0-154.7c0-44.2,0-88.4,0-132.7c0-20.2-0.1-40.4,0-60.6c0-4.2,0.3-8.4,0.8-12.7c-0.4,2.7-0.7,5.3-1.1,8
				c1.2-8.4,3.4-16.6,6.7-24.5c-1,2.4-2,4.8-3,7.2c2.3-5.2,4.9-10.2,8.1-15c0.3-0.5,2.5-4.3,3-4.3c-0.5,0-5.5,6.8-1.5,2
				c1.8-2.2,3.7-4.2,5.7-6.2s4.1-3.9,6.2-5.7c1.9-1.6,5.8-3.7-2,1.5c1.3-0.8,2.5-1.8,3.7-2.6c4.9-3.3,10.1-6.1,15.5-8.4
				c-2.4,1-4.8,2-7.2,3c7.9-3.3,16-5.5,24.5-6.7c-2.7,0.4-5.3,0.7-8,1.1c12.1-1.5,24.7-0.8,36.8-0.8c16.9,0,33.8,0,50.8,0
				c4.1,0,8.1,0,12.2,0c-9.6-12.7-19.3-25.3-28.9-38c-5.9,18.1-11.8,36.3-17.7,54.4c-6.1,18.7,10.2,38,28.9,38c11.5,0,23,0,34.4,0
				c27.6,0,55.1,0,82.7,0c33.4,0,66.7,0,100.1,0c28.8,0,57.7,0,86.5,0c14,0,28,0.3,42.1,0c0.2,0,0.4,0,0.6,0c18.8,0,35-19.3,28.9-38
				c-5.9-18.1-11.8-36.3-17.7-54.4c-9.6,12.7-19.3,25.3-28.9,38c26.6,0,53.1,0,79.7,0c6.4,0,12.6,0,19,0.8c-2.7-0.4-5.3-0.7-8-1.1
				c8.4,1.2,16.6,3.4,24.5,6.7c-2.4-1-4.8-2-7.2-3c5.2,2.3,10.2,4.9,15,8.1c0.5,0.3,4.3,2.5,4.3,3c0-0.5-6.8-5.5-2-1.5
				c2.2,1.8,4.2,3.7,6.2,5.7s3.9,4.1,5.7,6.2c1.6,1.9,3.7,5.8-1.5-2c0.8,1.3,1.8,2.5,2.6,3.7c3.3,4.9,6.1,10.1,8.4,15.5
				c-1-2.4-2-4.8-3-7.2c3.3,7.9,5.5,16,6.7,24.5c-0.4-2.7-0.7-5.3-1.1-8C818,304,818.2,308.2,818.3,312.3c0.1,15.7,13.7,30.7,30,30
				c16.2-0.7,30.1-13.2,30-30C877.9,257.5,841,207.9,788,193c-14.4-4-29.1-4.6-43.9-4.6c-14.6,0-29.1,0-43.7,0
				c-10.8,0-21.5,0-32.3,0c-18.8,0-35,19.3-28.9,38c5.9,18.1,11.8,36.3,17.7,54.4c9.6-12.7,19.3-25.3,28.9-38c-11.5,0-23,0-34.4,0
				c-27.6,0-55.1,0-82.7,0c-33.4,0-66.7,0-100.1,0c-28.8,0-57.7,0-86.5,0c-14,0-28.1-0.4-42.1,0c-0.2,0-0.4,0-0.6,0
				c9.6,12.7,19.3,25.3,28.9,38c5.9-18.1,11.8-36.3,17.7-54.4c6.1-18.7-10.2-38-28.9-38c-15.2,0-30.5,0-45.7,0
				c-15.7,0-31.6-0.8-47.3,0.2c-39.7,2.3-74.4,22.2-97.2,54.6c-14.3,20.3-21.1,45.8-21.2,70.4c0,18.1,0,36.2,0,54.3
				c0,36.6,0,73.2,0,109.8c0,44.6,0,89.1,0,133.7c0,41.4,0,82.9,0,124.3c0,27.8,0,55.6,0,83.4c0,5.3,0,10.7,0,16
				c0.1,30.6,11.1,58.7,30.6,82c22.7,27.2,58.3,42.3,93.3,42.5c4.3,0,8.6,0,12.9,0c27.4,0,54.9,0,82.3,0c41.9,0,83.7,0,125.6,0
				c44,0,88,0,132,0c33.3,0,66.6,0,99.8,0c22.6,0,46.2,1.5,68.1-5.4c18.4-5.8,35.1-15.5,49.1-28.7c14.2-13.2,24-29.6,31-47.5
				c5.8-14.7,7.6-30.8,7.6-46.5c0-21.2,0-42.4,0-63.6c0-38.4,0-76.8,0-115.2c0-44.6,0-89.3,0-133.9c0-40.4,0-80.7,0-121.1
				c0-25,0-50.1,0-75.1c0-3.5,0-7,0-10.5c0-15.7-13.8-30.7-30-30C832,283,818.3,295.5,818.3,312.3z"/>
		</g>
	</g>
	<g>
		<g>
			<g>
				<path d="M290.8,469.8c14.7,0,29.5,0,44.2,0c35.2,0,70.4,0,105.6,0c42.7,0,85.5,0,128.2,0c36.8,0,73.6,0,110.5,0
					c18,0,36,0.4,53.9,0c0.3,0,0.5,0,0.8,0c15.7,0,30.7-13.8,30-30c-0.7-16.3-13.2-30-30-30c-14.7,0-29.5,0-44.2,0
					c-35.2,0-70.4,0-105.6,0c-42.7,0-85.5,0-128.2,0c-36.8,0-73.6,0-110.5,0c-18,0-36-0.4-53.9,0c-0.3,0-0.5,0-0.8,0
					c-15.7,0-30.7,13.8-30,30C261.5,456,273.9,469.8,290.8,469.8L290.8,469.8z"/>
			</g>
		</g>
		<g>
			<g>
				<path d="M290.8,632.2c14.7,0,29.5,0,44.2,0c35.2,0,70.4,0,105.6,0c42.7,0,85.5,0,128.2,0c36.8,0,73.6,0,110.5,0
					c18,0,36,0.4,53.9,0c0.3,0,0.5,0,0.8,0c15.7,0,30.7-13.8,30-30c-0.7-16.3-13.2-30-30-30c-14.7,0-29.5,0-44.2,0
					c-35.2,0-70.4,0-105.6,0c-42.7,0-85.5,0-128.2,0c-36.8,0-73.6,0-110.5,0c-18,0-36-0.4-53.9,0c-0.3,0-0.5,0-0.8,0
					c-15.7,0-30.7,13.8-30,30C261.5,618.5,273.9,632.2,290.8,632.2L290.8,632.2z"/>
			</g>
		</g>
		<g>
			<g>
				<path d="M290.8,794.6c34.3,0,68.6,0,102.9,0c54.3,0,108.6,0,162.8,0c12.5,0,25,0,37.5,0c15.7,0,30.7-13.8,30-30
					c-0.7-16.3-13.2-30-30-30c-34.3,0-68.6,0-102.9,0c-54.3,0-108.6,0-162.8,0c-12.5,0-25,0-37.5,0c-15.7,0-30.7,13.8-30,30
					C261.5,780.9,273.9,794.6,290.8,794.6L290.8,794.6z"/>
			</g>
		</g>
	</g>
</g>
</svg>
