<?xml version="1.0" encoding="utf-8"?>
<!-- Generator: Adobe Illustrator 23.0.6, SVG Export Plug-In . SVG Version: 6.00 Build 0)  -->
<svg version="1.1" id="Camada_1" xmlns="http://www.w3.org/2000/svg" xmlns:xlink="http://www.w3.org/1999/xlink" x="0px" y="0px"
	 viewBox="0 0 60 75" style="enable-background:new 0 0 60 75;" xml:space="preserve">
<path d="M51,48.6l-2-29.7l0,0c-0.1-0.8-0.7-1.4-1.5-1.4h-7V14c0-6.2-4.7-11.2-10.5-11.2S19.5,7.8,19.5,14v3.5h-7
	c-0.8,0-1.4,0.6-1.5,1.4l0,0L9,48.6v0.1c0,4.8,3.7,8.5,8.5,8.5h25C47.3,57.2,51,53.5,51,48.6C51,48.7,51,48.6,51,48.6z M22.5,14
	c0-4.5,3.4-8.2,7.5-8.2c4.2,0,7.5,3.6,7.5,8.2v3.5h-15V14z M42.5,54.2h-25c-3.1,0-5.5-2.4-5.5-5.5l1.9-28.2h32.2L48,48.7
	C48,51.8,45.6,54.2,42.5,54.2z"/>
</svg>
