<svg id="Camada_1" data-name="Camada 1" xmlns="http://www.w3.org/2000/svg" xmlns:xlink="http://www.w3.org/1999/xlink" viewBox="0 0 42 54.4"><defs><style>.cls-1{fill:url(#Gradiente_sem_nome_4);}</style><linearGradient id="Gradiente_sem_nome_4" x1="30" y1="57.2" x2="30" y2="2.8" gradientUnits="userSpaceOnUse"><stop offset="0" stop-color="#004c9a"/><stop offset="1" stop-color="#6a2889"/></linearGradient></defs><title>sacolinha_gradiente_02</title><path class="cls-1" d="M51,48.6,49,18.9h0a1.52,1.52,0,0,0-1.5-1.4h-7V14C40.5,7.8,35.8,2.8,30,2.8S19.5,7.8,19.5,14v3.5h-7A1.52,1.52,0,0,0,11,18.9h0L9,48.6v.1a8.37,8.37,0,0,0,8.5,8.5h25A8.39,8.39,0,0,0,51,48.6ZM22.5,14c0-4.5,3.4-8.2,7.5-8.2s7.5,3.6,7.5,8.2v3.5h-15Zm20,40.2h-25A5.42,5.42,0,0,1,12,48.7l1.9-28.2H46.1L48,48.7A5.42,5.42,0,0,1,42.5,54.2Z" transform="translate(-9 -2.8)"/></svg>