<?xml version="1.0" encoding="utf-8"?>
<!-- Generator: Adobe Illustrator 23.0.6, SVG Export Plug-In . SVG Version: 6.00 Build 0)  -->
<svg version="1.1" id="Camada_1" xmlns="http://www.w3.org/2000/svg" xmlns:xlink="http://www.w3.org/1999/xlink" x="0px" y="0px"
	 viewBox="0 0 100 125" style="enable-background:new 0 0 100 125;" xml:space="preserve">
<style type="text/css">
	.st0{display:none;}
	.st1{display:inline;}
</style>
<g class="st0">
	<path class="st1" d="M60.3,14.1L14.1,60.3l25.7,25.7l46.2-46.2V14.1H60.3z M72.6,32.2c-2.7,0-4.8-2.2-4.8-4.8
		c0-2.7,2.2-4.8,4.8-4.8s4.8,2.2,4.8,4.8C77.5,30,75.3,32.2,72.6,32.2z"/>
</g>
<g class="st0">
	<path class="st1" d="M71.7,85.7L69,60l17-17.5L62,39L50,14L38,39l-24,3.3L31,60l-2.7,25.7L50,72c0,0,0,0,0,0L71.7,85.7z"/>
</g>
<g class="st0">
	<path class="st1" d="M50,17.1c-18.2,0-32.9,14.7-32.9,32.9c0,18.2,14.7,32.9,32.9,32.9c18.2,0,32.9-14.7,32.9-32.9
		C82.9,31.8,68.2,17.1,50,17.1z M53.1,73.7V62h-6v11.8c-10.9-1.3-19.6-10-20.9-20.9H38v-6H26.3c1.4-10.8,10-19.3,20.9-20.6v11.5h6
		V26.3c10.7,1.4,19.2,9.9,20.6,20.6H62.3v6h11.5C72.5,63.7,63.9,72.3,53.1,73.7z"/>
</g>
<g class="st0">
	<rect x="14" y="36" class="st1" width="72" height="27"/>
</g>
<g>
	<polygon points="44,50 80,86 50,86 14,50 50,14 80,14 	"/>
</g>
</svg>
