<?xml version="1.0" encoding="utf-8"?>
<!-- Generator: Adobe Illustrator 23.0.6, SVG Export Plug-In . SVG Version: 6.00 Build 0)  -->
<svg version="1.1" id="Camada_1" xmlns="http://www.w3.org/2000/svg" xmlns:xlink="http://www.w3.org/1999/xlink" x="0px" y="0px"
	 viewBox="0 0 32 40" style="enable-background:new 0 0 32 40;" xml:space="preserve">
<path d="M29.1,24.1l-2.9-2.9c-0.9-0.9-2.2-1.1-3.3-0.6c-0.6,0.2-1.1,0.6-1.6,1.1C18,24.9,7.1,14,10.4,10.7c0.5-0.5,0.8-1.1,1.1-1.6
	c0.5-1.1,0.2-2.4-0.6-3.3L7.9,2.9c-1.4-1.4-3.8-1-4.7,0.7c-1,1.8-1.7,4.5-0.9,7.7c1.7,6.8,11.6,16.7,18.4,18.4
	c3.2,0.8,5.8,0.1,7.7-0.9C30.2,27.8,30.5,25.5,29.1,24.1z"/>
</svg>
