<?xml version="1.0" encoding="utf-8"?>
<!-- Generator: Adobe Illustrator 23.0.6, SVG Export Plug-In . SVG Version: 6.00 Build 0)  -->
<svg version="1.1" id="Camada_1" xmlns="http://www.w3.org/2000/svg" xmlns:xlink="http://www.w3.org/1999/xlink" x="0px" y="0px"
	 viewBox="0 0 100 125" style="enable-background:new 0 0 100 125;" xml:space="preserve">
<path d="M87.3,46.8c-1.7-21.4-20-34.5-37.3-34.5c-15.8,0-25.3,9.8-25.3,9.8s4.6-1.9,10.6-1.9c13.4,0,27.5,10.5,29.2,26.6l-10.4,0
	l21.7,21.7l21.7-21.7L87.3,46.8z"/>
<path d="M35.4,52.7l10.4,0L24.2,31.1L2.5,52.7l10.2,0c1.7,21.4,20,34.5,37.3,34.5c15.8,0,25.3-9.8,25.3-9.8s-4.6,1.9-10.6,1.9
	C51.3,79.3,37.1,68.8,35.4,52.7z"/>
</svg>
