<?xml version="1.0" encoding="utf-8"?>
<!-- Generator: Adobe Illustrator 23.0.6, SVG Export Plug-In . SVG Version: 6.00 Build 0)  -->
<svg version="1.1" id="Camada_1" xmlns="http://www.w3.org/2000/svg" xmlns:xlink="http://www.w3.org/1999/xlink" x="0px" y="0px"
	 viewBox="0 0 100 125" style="enable-background:new 0 0 100 125;" xml:space="preserve">
<g>
	<path d="M72.8,17.7c0.9-1.7,1.4-3.6,1.4-5.6C74.1,5.4,68.7,0,62.1,0c-6.4,0-11.7,5-12,11.4c0,0,0,0,0,0s0,0,0,0
		C49.6,5,44.4,0,37.9,0c-6.7,0-12.1,5.4-12.1,12.1c0,2,0.5,3.9,1.4,5.6c-12.9,7.7-21.6,21.9-21.6,38C5.7,80.2,25.5,100,50,100
		s44.3-19.8,44.3-44.3C94.3,39.5,85.7,25.4,72.8,17.7z M50,91.4c-19.7,0-35.7-16-35.7-35.7h71.4C85.7,75.4,69.7,91.4,50,91.4z"/>
	<circle cx="37.3" cy="64" r="5.7"/>
	<circle cx="62.7" cy="64" r="5.7"/>
</g>
</svg>
