<svg id="Layer_1" data-name="Layer 1" xmlns="http://www.w3.org/2000/svg" viewBox="0 0 93.04 93.04"><title>ajuda</title><path d="M51.37,14.1A46.53,46.53,0,1,0,97.89,60.62,46.52,46.52,0,0,0,51.37,14.1Zm0,71.09-.45.09H50a7.65,7.65,0,0,1-.83-.18,5.14,5.14,0,1,1,2.23.09ZM66.26,51.4A11.47,11.47,0,0,1,63.56,56a30.45,30.45,0,0,1-4.65,3.83c-.93.64-1.76,1.31-2.63,2a5.54,5.54,0,0,0-1.73,2.48c-.18.51-.4,1-.59,1.51a3.46,3.46,0,0,1-3.24,2.3,4.51,4.51,0,0,1-2.35-.37,3.82,3.82,0,0,1-2.11-2.88,6.59,6.59,0,0,1,1.11-4.93,13.61,13.61,0,0,1,2.92-3.09c1.22-1,2.48-1.94,3.72-2.94A9.61,9.61,0,0,0,56.56,51a5.45,5.45,0,0,0-.65-6.05,5,5,0,0,0-2.79-1.54,8.81,8.81,0,0,0-4.33.07,5.27,5.27,0,0,0-3.36,2.79c-.44.82-.82,1.66-1.23,2.49A6.22,6.22,0,0,1,43,50.39a4.15,4.15,0,0,1-3.16,1,4.24,4.24,0,0,1-2-.54A3.45,3.45,0,0,1,36,47.79a9,9,0,0,1,1.86-5.69,14.32,14.32,0,0,1,5.59-4.52,17.11,17.11,0,0,1,5.29-1.53l1-.1h1.86l1,.09a19.61,19.61,0,0,1,7.17,1.86,11.9,11.9,0,0,1,5,4.24A10.93,10.93,0,0,1,66.45,47,10.72,10.72,0,0,1,66.26,51.4Z" transform="translate(-4.85 -14.1)"/></svg>