<svg id="Layer_1" data-name="Layer 1" xmlns="http://www.w3.org/2000/svg" viewBox="0 0 18 16"><title>boleto</title><path d="M5,6.5a.5.5,0,0,1,1,0v10a.5.5,0,0,1-1,0ZM18.5,20a.5.5,0,0,1,0-1A1.5,1.5,0,0,0,20,17.5V6.5A1.5,1.5,0,0,0,18.5,5H5.5A1.5,1.5,0,0,0,4,6.5v11A1.5,1.5,0,0,0,5.5,19a.5.5,0,0,1,0,1A2.5,2.5,0,0,1,3,17.5V6.5A2.5,2.5,0,0,1,5.5,4h13A2.5,2.5,0,0,1,21,6.5v11A2.5,2.5,0,0,1,18.5,20ZM9,6.5a.5.5,0,0,1,1,0v13a.5.5,0,0,1-1,0Zm2,0a.5.5,0,0,1,1,0v10a.5.5,0,0,1-1,0Zm2,0a.5.5,0,0,1,1,0v13a.5.5,0,0,1-1,0Zm3,0a.5.5,0,0,1,1,0v10a.5.5,0,0,1-1,0Zm2,0a.5.5,0,0,1,1,0v10a.5.5,0,0,1-1,0Zm-2,12a.5.5,0,0,1,1,0v1a.5.5,0,0,1-1,0Zm-5,0a.5.5,0,0,1,1,0v1a.5.5,0,0,1-1,0Zm-4,0a.5.5,0,0,1,1,0v1a.5.5,0,0,1-1,0Z" transform="translate(-3 -4)"/></svg>