<svg id="Layer_1" data-name="Layer 1" xmlns="http://www.w3.org/2000/svg" viewBox="0 0 93.9 76.46"><title>caminhao-calcule-o-cep</title><path d="M91.8,16.77H46.93a5.16,5.16,0,0,0-5.15,5.15l-.05,2.16H24.19a5.56,5.56,0,0,0-4.67,2.56L4.46,50.33a9,9,0,0,0-1.41,4.85V78.12a5.13,5.13,0,0,0,5.08,5.17h6.43a13.88,13.88,0,0,0,13.31,9.94,13.72,13.72,0,0,0,13.32-9.94H57.84a13.88,13.88,0,0,0,13.31,9.94,13.73,13.73,0,0,0,13.32-9.94h7.34A5.13,5.13,0,0,0,97,78.18V21.88A5.15,5.15,0,0,0,91.8,16.77ZM27.87,85.17a5.85,5.85,0,0,1-5.73-5.73,5.74,5.74,0,0,1,5.73-5.74,5.87,5.87,0,0,1,5.74,5.74A5.78,5.78,0,0,1,27.87,85.17Zm9-34.69a1.27,1.27,0,0,1-1.27,1.27H15.29A1.27,1.27,0,0,1,14,50.45a1.35,1.35,0,0,1,.18-.61L24.88,33a1.3,1.3,0,0,1,1.07-.6h9.67a1.27,1.27,0,0,1,1.27,1.28h0ZM71.15,85.14a5.74,5.74,0,0,1,0-11.47,5.82,5.82,0,0,1,5.74,5.73A5.74,5.74,0,0,1,71.15,85.14Z" transform="translate(-3.05 -16.77)"/></svg>