<svg id="Layer_1" data-name="Layer 1" xmlns="http://www.w3.org/2000/svg" viewBox="0 0 94.09 84.5"><title>carrinho</title><path d="M39.78,98.63a6.13,6.13,0,1,1-6.13-6.13,6.07,6.07,0,0,1,6.13,6.13M74.07,92.5a6.13,6.13,0,1,0,6.12,6.13,6.07,6.07,0,0,0-6.12-6.13M95.62,33.35a2.2,2.2,0,0,0-1.84-.85H23.61L21.53,22.21a2.51,2.51,0,0,0-2.45-2H4.38c-3.18,0-3.18,4.9,0,4.9H17.12l9.43,46.41L23,83.2a2.47,2.47,0,0,0,2.33,3.18H84.11c3.18,0,3.18-4.9,0-4.9H28.39l2.45-7.84L87.78,68a2.48,2.48,0,0,0,2.21-2C96.6,33,96.6,34.7,95.62,33.35" transform="translate(-2 -20.25)"/></svg>