<svg id="Layer_1" data-name="Layer 1" xmlns="http://www.w3.org/2000/svg" viewBox="0 0 94.65 83.93"><title>carrinho</title><path d="M38,76.2a7.9,7.9,0,1,1-7.9,7.9A7.92,7.92,0,0,1,38,76.2ZM64.5,84a7.9,7.9,0,1,0,7.9-7.9A7.92,7.92,0,0,0,64.5,84ZM92.4,33.1H43.8A3.74,3.74,0,0,0,41,36.9,4.32,4.32,0,0,0,43.9,41H87.4L85,49.3H42.2a3.56,3.56,0,0,0-2.7,3.5,4.1,4.1,0,0,0,2.7,3.8H82.8l-2.3,7.7H36.3L33.4,40.9l-1-7.9s-.9-7.3-1.3-10.3-8-6.8-24.3-14.4c-3.8-1.6-7,5.4,0,9l12.8,6s3,1.7,3.2,4,5.4,40.8,5.4,40.8.2,5.4,5.1,5.4H82.1c4.1,0,4.9-4.3,4.9-4.3l9.7-28.7C96.8,40.6,99.6,33.1,92.4,33.1Z" transform="translate(-2.66 -8.07)"/></svg>