<svg id="Layer_1" data-name="Layer 1" xmlns="http://www.w3.org/2000/svg" viewBox="0 0 80 80"><defs><style>.cls-1{fill-rule:evenodd;}</style></defs><title>compre-pelo-whatsapp</title><path class="cls-1" d="M52,22.5A40,40,0,0,0,19.11,85.19a2,2,0,0,1,.25,1.72L15.29,100.5l13.32-4.59a1.93,1.93,0,0,1,1.71.22A40,40,0,1,0,52,22.5ZM35.67,39.94,43,52l-3,3a2,2,0,0,0-.31,2.41c4.62,8,10.1,14.24,17.78,17.62a2,2,0,0,0,2.22-.41l3.21-3.21,11.75,7.34a11.11,11.11,0,0,1-4.93,5.69,12,12,0,0,1-8.13.75c-6.26-1.3-13.83-6.23-20-12.53s-10.94-14-12.15-20.22a11.75,11.75,0,0,1,.81-7.94,10,10,0,0,1,5.5-4.53Z" transform="translate(-12.04 -22.5)"/></svg>