<svg id="Layer_1" data-name="Layer 1" xmlns="http://www.w3.org/2000/svg" viewBox="0 0 88 60"><title>credit-card</title><path d="M13,20a7,7,0,0,0-7,7V73a7,7,0,0,0,7,7H87a7,7,0,0,0,7-7V27a7,7,0,0,0-7-7Zm0,4H87a3,3,0,0,1,3,3v4H10V27A3,3,0,0,1,13,24ZM10,35H90V73a3,3,0,0,1-3,3H13a3,3,0,0,1-3-3Zm7.81,6A2,2,0,0,0,18,45H28a2,2,0,1,0,0-4Zm19,0A2,2,0,0,0,37,45H55a2,2,0,1,0,0-4ZM72,57a7,7,0,0,0,0,14,6.75,6.75,0,0,0,3-.78A6.75,6.75,0,0,0,78,71a7,7,0,0,0,0-14,6.72,6.72,0,0,0-3,.78A6.72,6.72,0,0,0,72,57Zm0,4a2.8,2.8,0,0,1,1.78.63,2.07,2.07,0,0,0,2.44,0A2.8,2.8,0,0,1,78,61a3,3,0,0,1,0,6,2.85,2.85,0,0,1-1.78-.62,2,2,0,0,0-2.44,0A2.85,2.85,0,0,1,72,67a3,3,0,0,1,0-6Z" transform="translate(-6 -20)"/></svg>