<svg id="Layer_1" data-name="Layer 1" xmlns="http://www.w3.org/2000/svg" viewBox="0 0 90.82 62.87"><title>frete-gratis</title><path d="M91.21,86.21A4.2,4.2,0,0,0,95.41,82V63.13a7.45,7.45,0,0,0-1.16-4L81.87,39.66A4.55,4.55,0,0,0,78,37.55H59.27a2.94,2.94,0,0,0-2.94,2.94V68.82h0a2,2,0,0,1-3.94,0v-33h0a4.23,4.23,0,0,0-4.23-4.24H8.82a4.23,4.23,0,0,0-4.23,4.24V82h0a4.2,4.2,0,0,0,4.21,4.2h6a11.27,11.27,0,0,0,10.93,8.2,11.4,11.4,0,0,0,11-8.2H64.1A11.27,11.27,0,0,0,75,94.41,11.4,11.4,0,0,0,86,86.21h5.26ZM31.46,83a5.69,5.69,0,1,1-11.38,0,5.79,5.79,0,0,1,5.69-5.7A5.68,5.68,0,0,1,31.46,83Zm37.88,0A5.79,5.79,0,0,1,75,77.32,5.71,5.71,0,0,1,80.72,83,5.79,5.79,0,0,1,75,88.71,5.71,5.71,0,0,1,69.34,83Zm16.9-24.31a1,1,0,0,1,.16.55,1,1,0,0,1-1,1.05H68.66a1,1,0,0,1-1-1.06V45.5h0a1,1,0,0,1,1.05-1h7.91a1,1,0,0,1,.87.49l8.76,13.77Z" transform="translate(-4.59 -31.54)"/></svg>