<svg id="Layer_1" data-name="Layer 1" xmlns="http://www.w3.org/2000/svg" viewBox="0 0 90 68"><title>frete-gratis</title><path d="M8,16a3.12,3.12,0,0,0-3,3V45a3.13,3.13,0,0,0,3,3,3.12,3.12,0,0,0,3-3V22H63V64.16A13,13,0,0,0,61.37,68H38.63a13,13,0,0,0-25.25,0H11V55a3.12,3.12,0,0,0-3-3.06A3.12,3.12,0,0,0,5,55V71a3.12,3.12,0,0,0,3,3h5.38a13,13,0,0,0,25.25,0H61.37a13,13,0,0,0,25.25,0H92a3.12,3.12,0,0,0,3-3V49a3.1,3.1,0,0,0-.22-1.16l-7-17A3.07,3.07,0,0,0,85,29H69V19a3.1,3.1,0,0,0-2.69-3ZM87.53,46H69V35H83ZM89,68H86.62A12.9,12.9,0,0,0,69,59V52H89ZM74,64a7,7,0,1,1-7,7,7,7,0,0,1,7-7ZM26,64a7,7,0,1,1-7,7,7,7,0,0,1,7-7Z" transform="translate(-5 -16)"/></svg>