<svg id="Layer_1" data-name="Layer 1" xmlns="http://www.w3.org/2000/svg" viewBox="0 0 48 32"><title>guia-de-medidas</title><path d="M34,30c9,0,16-4.39,16-10S43,10,34,10,18,14.4,18,20,25,30,34,30Zm0-13c3.86,0,7,1.35,7,3s-3.14,3-7,3-7-1.34-7-3S30.13,17,34,17Z" transform="translate(-2 -10)"/><path d="M34,32c-5.56,0-10.37-1.52-13.62-4H2V42H6V39H8v3h2V37h2v5h2V39h2v3h2V37h2v5h2V39h2v3h2V37h2v5h2V39h2v3h.33c.45,0,1,0,1.67,0V37h2v4.84c.63-.06,1.3-.14,2-.24V39h2v2.25c.66-.13,1.34-.3,2-.49V37h2v3.06c3.33-1.39,6-3.73,6-7.72V25.66C47.06,29.49,41.15,32,34,32Z" transform="translate(-2 -10)"/></svg>