<svg id="Capa_1" data-name="Capa 1" xmlns="http://www.w3.org/2000/svg" viewBox="0 0 46.99 46.99"><title>instagram</title><path d="M24.83,29.53a4.7,4.7,0,1,0-4.71-4.7A4.71,4.71,0,0,0,24.83,29.53Z" transform="translate(-1.33 -1.33)"/><polygon points="33.76 17.74 33.76 13.8 33.76 13.21 33.17 13.21 29.23 13.22 29.25 17.75 33.76 17.74"/><path d="M24.83,1.33a23.5,23.5,0,1,0,23.49,23.5A23.52,23.52,0,0,0,24.83,1.33ZM38.19,22.08V33A5.18,5.18,0,0,1,33,38.19H16.63A5.17,5.17,0,0,1,11.47,33V16.63a5.16,5.16,0,0,1,5.16-5.16H33a5.17,5.17,0,0,1,5.17,5.16Z" transform="translate(-1.33 -1.33)"/><path d="M32.13,24.83a7.31,7.31,0,0,1-14.61,0,7.21,7.21,0,0,1,.54-2.75h-4V33a2.56,2.56,0,0,0,2.56,2.56H33A2.56,2.56,0,0,0,35.58,33V22.08h-4A7.21,7.21,0,0,1,32.13,24.83Z" transform="translate(-1.33 -1.33)"/></svg>