<?xml version="1.0" encoding="utf-8"?>
<!-- Generator: Adobe Illustrator 22.0.0, SVG Export Plug-In . SVG Version: 6.00 Build 0)  -->
<svg version="1.1" id="Camada_1" xmlns="http://www.w3.org/2000/svg" xmlns:xlink="http://www.w3.org/1999/xlink" x="0px" y="0px"
	 viewBox="0 0 1128 266" style="enable-background:new 0 0 1128 266;" xml:space="preserve">
<style type="text/css">
	.st0{fill:#333730;stroke:#333730;stroke-width:2;stroke-miterlimit:10;}
	.st1{fill:#333730;}
	.st2{fill:#00B916;stroke:#00B916;stroke-width:2;stroke-miterlimit:10;}
	.st3{fill:#313B32;}
	.st4{fill:#00B916;}
	.st5{fill:url(#SVGID_1_);}
	.st6{fill:#FFFFFF;}
</style>
<g>
	<g>
		<g>
			<path class="st0" d="M945.9,76.7v87.1h-16.2V76.7H945.9z"/>
			<path class="st0" d="M971.4,97.3v34.6c0,10.1,5.5,17.7,15.9,17.7c10.1,0,16.9-8.4,16.9-18.5V97.3h16.2v66.2h-14.6l-1.1-9
				c-6.8,6.7-13.1,9.9-22.4,9.9c-15.8,0-27.3-11.9-27.3-32.4V97.3H971.4z"/>
			<path class="st0" d="M1074.4,114.8c-4.7-4.4-10.1-5.9-16.4-5.9c-7.8,0-12.1,2.4-12.1,6.6c0,4.3,3.9,6.7,12.3,7.2
				c12.5,0.8,28.3,3.6,28.3,21.2c0,11.7-9.5,21.7-28.4,21.7c-10.5,0-20.9-1.7-30.6-11.8l8-11.7c4.7,5.2,15.4,9.1,22.8,9.2
				c6.2,0.1,11.9-3.1,11.9-7.9c0-4.6-3.8-6.4-13.1-7c-12.5-0.9-27.3-5.5-27.3-20.5c0-15.3,15.8-20.6,27.9-20.6
				c10.3,0,18.1,2,25.7,8.7L1074.4,114.8z"/>
		</g>
		<g>
			<g>
				<g>
					<path class="st0" d="M302.5,97.3l15.7,0l-0.1,66.1l-15.4,0l-0.8-9.7c-3.8,7.8-14.1,11.5-21.5,11.6c-19.6,0.1-34-12-34-35.2
						c0-22.8,15.2-34.7,34.5-34.5c8.8,0,17.3,4.2,21,10.8L302.5,97.3z M262.7,130.2c0,12.6,8.7,20.1,19.5,20.1
						c25.7,0,25.8-40,0.1-40.1C271.5,110.3,262.8,117.6,262.7,130.2z"/>
					<path class="st0" d="M382.8,90.9l12,9.1l-7.4,9.4c5.1,5.8,6.9,12.3,6.9,19.6c0,8.2-3.1,19.7-14,24.6
						c11,5.5,13.6,13.4,13.6,21.9c0,18.2-14,29.5-33.2,29.4c-19.2,0-33.5-11.7-33.5-29.5l16.2,0c0,8.6,7.9,14.2,17.3,14.2
						c9.4,0,16.8-5.1,16.8-14.2c0-9.1-8.6-13.3-16.7-13.3c-20.6,0-33.5-12.7-33.5-33.3c0-20.6,15.1-33.5,33.6-33.5
						c5.2,0,10.6,0.7,15.1,3.8L382.8,90.9z M343.8,128.9c0,11.5,7.7,18.4,17.3,18.4c9.4,0,17.2-6.9,17.2-18.3
						c0-11.4-7.7-18.6-17.1-18.7C351.6,110.2,343.8,117.3,343.8,128.9z"/>
					<path class="st0" d="M436,68.2l9,0l19.8,18.5l0,0.8l-16.6,0l-7.8-7.9l-7.7,7.9l-16.6,0l0-0.8L436,68.2z"/>
					<path class="st0" d="M531.3,165.1l0.1-34.6c0-10.1-5.5-17.7-15.9-17.7c-10.1,0-16.9,8.4-16.9,18.5l-0.1,33.8l-16.2,0l0.1-68
						l14.6,0l1.1,10.8c6.7-6.6,13.4-9.9,21.7-9.9c15.5,0,28,11.7,28,32.5l-0.1,34.7L531.3,165.1z"/>
					<path class="st0" d="M617.4,155.6c-7.7,7.5-15.7,10.4-25.5,10.4c-19.2,0-35.1-11.6-35.1-35s16.2-34,35.3-34
						c9.4,0,16.4,1.8,23.7,8.9l-10.3,10.8c-3.9-3.5-8.7-5.2-13.3-5.2c-11,0-19,8-19.1,19.5c0,12.6,8.5,19.3,18.7,19.3
						c5.2,0,10.5-1.5,14.5-5.5L617.4,155.6z"/>
					<path class="st0" d="M626.9,97l-0.1,68.4l16.4,0l0.1-68.4L626.9,97z"/>
					<path class="st0" d="M708.2,96.8l15.7,0l-0.1,66.1l-15.4,0l-0.8-9.7c-3.8,7.8-14.1,11.5-21.5,11.6c-19.6,0.1-34-12-34-35.2
						c0-22.8,15.2-34.7,34.5-34.5c8.8,0,17.3,4.2,21,10.8L708.2,96.8z M668.5,129.7c0,12.6,8.7,20.1,19.5,20.1
						c25.7,0,25.8-40,0.1-40.1C677.2,109.8,668.5,117.1,668.5,129.7z"/>
				</g>
				<rect x="625.5" y="75.9" class="st1" width="18.8" height="17"/>
			</g>
		</g>
		<path class="st2" d="M761.1,137.3c1.1,8.2,7.9,15.1,19.4,15.1c6,0,15.9-3,19.7-6.8l7.4,8.4c-7,7.2-18.4,10.7-28.4,10.7
			c-22.8,0-36.3-14.1-36.3-35.3c0-20.1,14.3-33.3,35.7-33.2c22.1,0,36.7,14.3,34.1,41.5L761.1,137.3z M795.7,123
			c-1.1-8.6-7.6-13.7-17-13.7c-8.8,0-16.2,5.1-18.6,13.6L795.7,123z"/>
		<g>
			<path class="st3" d="M421.3,196.5c0-6,4.5-10.3,10.1-10.3s10.6,3.4,9.8,11.2h-17.9c0.4,4.7,4,7.4,8.1,7.4c2.6,0,5.7-1,7.2-3
				l1.4,1.1c-1.9,2.5-5.4,3.8-8.6,3.8C425.8,206.7,421.3,202.8,421.3,196.5z M439.4,195.7c0-4.9-3.3-7.6-8-7.6
				c-4.1,0-7.6,2.8-8.1,7.6H439.4z"/>
			<path class="st3" d="M463.6,203.6c-2,2-4.6,3-7.2,3c-5.6,0-10.2-3.9-10.2-10.1c0-6.3,4.5-10.1,10.2-10.1c2.6,0,5.2,1,7.2,3
				l-1.3,1.2c-1.6-1.6-3.8-2.4-6-2.4c-4.5,0-8.3,2.9-8.3,8.3c0,5.3,3.8,8.3,8.3,8.3c2.1,0,4.3-0.8,5.9-2.5L463.6,203.6z"/>
			<path class="st3" d="M468.2,196.5c0-6.3,4.5-10.3,10.1-10.3s10.1,4,10.1,10.3s-4.5,10.2-10.1,10.2S468.2,202.8,468.2,196.5z
				 M486.4,196.5c0-5.1-3.7-8.5-8.2-8.5c-4.5,0-8.2,3.3-8.2,8.5s3.7,8.2,8.2,8.2C482.8,204.8,486.4,201.7,486.4,196.5z"/>
			<path class="st3" d="M523.4,206.4v-11.9c0-3.8-2.6-6.5-6.4-6.5s-6.4,2.8-6.4,6.6v11.8h-2v-11.8c0-3.8-2.6-6.6-6.4-6.6
				s-6.4,2.8-6.4,6.6v11.8h-2v-19.9h1.8l0,3.3c1.4-2.6,3.9-3.7,6.5-3.7c3,0,6.2,1.4,7.4,4.9c1.2-3.3,4.3-4.9,7.4-4.9
				c4.9,0,8.3,3.4,8.3,8.4v11.9H523.4z"/>
			<path class="st3" d="M561.4,206.4v-11.9c0-3.8-2.6-6.5-6.4-6.5s-6.4,2.8-6.4,6.6v11.8h-2v-11.8c0-3.8-2.6-6.6-6.4-6.6
				s-6.4,2.8-6.4,6.6v11.8h-2v-19.9h1.8l0,3.3c1.4-2.6,3.9-3.7,6.5-3.7c3,0,6.2,1.4,7.4,4.9c1.2-3.3,4.3-4.9,7.4-4.9
				c4.9,0,8.3,3.4,8.3,8.4v11.9H561.4z"/>
			<path class="st3" d="M568.8,196.5c0-6,4.5-10.3,10.1-10.3s10.6,3.4,9.8,11.2h-17.9c0.4,4.7,4,7.4,8.1,7.4c2.6,0,5.7-1,7.2-3
				l1.4,1.1c-1.9,2.5-5.4,3.8-8.6,3.8C573.3,206.7,568.8,202.8,568.8,196.5z M586.9,195.7c0-4.9-3.3-7.6-8-7.6
				c-4.1,0-7.6,2.8-8.1,7.6H586.9z"/>
			<path class="st3" d="M596.7,186.6l0.1,3.5c1.2-2.7,4.1-3.7,6.6-3.7c1.5,0,2.9,0.4,4.3,1.2l-0.9,1.6c-1-0.6-2.2-0.9-3.4-0.9
				c-3.7,0-6.6,3-6.6,6.6v11.6h-2v-19.9H596.7z"/>
			<path class="st3" d="M628,203.6c-2,2-4.6,3-7.2,3c-5.6,0-10.2-3.9-10.2-10.1c0-6.3,4.5-10.1,10.2-10.1c2.6,0,5.2,1,7.2,3
				l-1.3,1.2c-1.6-1.6-3.8-2.4-6-2.4c-4.5,0-8.3,2.9-8.3,8.3c0,5.3,3.8,8.3,8.3,8.3c2.1,0,4.3-0.8,5.9-2.5L628,203.6z"/>
			<path class="st3" d="M632.7,196.5c0-6,4.5-10.3,10.1-10.3s10.6,3.4,9.8,11.2h-17.9c0.4,4.7,4,7.4,8.1,7.4c2.6,0,5.7-1,7.2-3
				l1.4,1.1c-1.9,2.5-5.4,3.8-8.6,3.8C637.2,206.7,632.7,202.8,632.7,196.5z M650.8,195.7c0-4.9-3.3-7.6-8-7.6
				c-4.1,0-7.6,2.8-8.1,7.6H650.8z"/>
			<path class="st3" d="M690,186.6c0,6.6,0,13.2,0,19.9h-2v-4.2c-1.9,3.1-4.9,4.5-8.1,4.5c-5.5,0-10.1-4.2-10.1-10.3
				s4.5-10.2,10.1-10.2c3.2,0,6.5,1.5,8.1,4.6v-4.3H690z M671.7,196.5c0,5,3.6,8.3,8.1,8.3c11.1,0,11.1-16.6,0-16.6
				C675.4,188.2,671.7,191.5,671.7,196.5z"/>
			<path class="st3" d="M698.3,186.6v3.5c1.5-2.7,4.3-3.9,7.1-3.9c5.3,0,9,3.3,9,8.8v11.5h-2V195c0-4.5-2.8-6.9-7.1-6.9
				c-4.1,0-7,3.1-7,7.2v11.1h-2v-19.9H698.3z"/>
			<path class="st3" d="M739.6,178.3v28.1h-1.9V202c-1.6,3-4.9,4.7-8.3,4.7c-5.5,0-9.9-3.7-9.9-10.3c0-6.6,4.4-10.3,10-10.3
				c3.4,0,6.6,1.4,8.2,4.7v-12.6H739.6z M721.4,196.5c0,5.5,3.7,8.3,8.1,8.3c4.7,0,8.1-3.4,8.1-8.4c0-4.9-3.5-8.3-8.1-8.3
				C725,188.1,721.4,190.9,721.4,196.5z"/>
			<path class="st3" d="M777.4,178.3v28.1h-1.9V202c-1.6,3-4.9,4.7-8.3,4.7c-5.5,0-9.9-3.7-9.9-10.3c0-6.6,4.4-10.3,10-10.3
				c3.4,0,6.6,1.4,8.2,4.7v-12.6H777.4z M759.2,196.5c0,5.5,3.7,8.3,8.1,8.3c4.7,0,8.1-3.4,8.1-8.4c0-4.9-3.5-8.3-8.1-8.3
				C762.9,188.1,759.2,190.9,759.2,196.5z"/>
			<path class="st3" d="M786.8,180.1c0,2.1-3.2,2.1-3.2,0C783.6,178,786.8,178,786.8,180.1z M784.2,186.5v19.9h2v-19.9H784.2z"/>
			<path class="st3" d="M808.8,185.8l1.3,1.1l-1.9,2.3c1.4,1.5,2.5,3.5,2.5,6.8c0,3.5-2,7-5.3,8.4c3.5,1.2,5.4,3.7,5.4,7.1
				c0,5.3-4.2,7.9-9.4,7.9c-5.3,0-9.4-2.9-9.4-7.9h2c0,4.1,3.5,6,7.4,6s7.5-1.8,7.5-6c0-4.3-3.8-6-7.5-6c-5.7,0-9.3-4.3-9.3-9.6
				c0-6.2,4.2-9.7,9.3-9.7c2,0,4.1,0.7,5.6,1.8L808.8,185.8z M793.8,195.9c0,4.1,2.8,7.6,7.4,7.6c4.1,0,7.4-3.5,7.4-7.6
				c0-5-3.3-7.7-7.4-7.7C797.1,188.2,793.8,190.7,793.8,195.9z"/>
			<path class="st3" d="M818.3,180.1c0,2.1-3.2,2.1-3.2,0C815.1,178,818.3,178,818.3,180.1z M815.7,186.5v19.9h2v-19.9H815.7z"/>
			<path class="st3" d="M828.9,180.6v6h6.8v1.6h-6.8v12.1c0,2.7,0.6,4.6,3.7,4.6c1,0,2-0.3,3.1-0.8l0.7,1.6c-1.2,0.6-2.5,1-3.7,1
				c-4.2,0-5.6-2.5-5.6-6.4v-12.1h-4.2v-1.6h4.2v-5.8L828.9,180.6z"/>
			<path class="st3" d="M860.3,186.6c0,6.6,0,13.2,0,19.9h-2v-4.2c-1.9,3.1-4.9,4.5-8.1,4.5c-5.5,0-10.1-4.2-10.1-10.3
				s4.5-10.2,10.1-10.2c3.2,0,6.5,1.5,8.1,4.6v-4.3H860.3z M842.1,196.5c0,5,3.6,8.3,8.1,8.3c11.1,0,11.1-16.6,0-16.6
				C845.7,188.2,842.1,191.5,842.1,196.5z"/>
			<path class="st3" d="M868.7,178.3v28.1h-2v-28.1H868.7z"/>
			<path class="st3" d="M916.8,206.4v-11.9c0-3.8-2.6-6.5-6.4-6.5s-6.4,2.8-6.4,6.6v11.8h-2v-11.8c0-3.8-2.6-6.6-6.4-6.6
				s-6.4,2.8-6.4,6.6v11.8h-2v-19.9h1.8l0,3.3c1.4-2.6,3.9-3.7,6.5-3.7c3,0,6.2,1.4,7.4,4.9c1.2-3.3,4.3-4.9,7.4-4.9
				c4.9,0,8.3,3.4,8.3,8.4v11.9H916.8z"/>
			<path class="st3" d="M944.4,186.6c0,6.6,0,13.2,0,19.9h-2v-4.2c-1.9,3.1-4.9,4.5-8.1,4.5c-5.5,0-10.1-4.2-10.1-10.3
				s4.5-10.2,10.1-10.2c3.2,0,6.5,1.5,8.1,4.6v-4.3H944.4z M926.2,196.5c0,5,3.6,8.3,8.1,8.3c11.1,0,11.1-16.6,0-16.6
				C929.8,188.2,926.2,191.5,926.2,196.5z"/>
			<path class="st3" d="M952.7,186.6l0.1,3.5c1.2-2.7,4.1-3.7,6.6-3.7c1.5,0,2.9,0.4,4.3,1.2l-0.9,1.6c-1-0.6-2.2-0.9-3.4-0.9
				c-3.7,0-6.6,3-6.6,6.6v11.6h-2v-19.9H952.7z"/>
			<path class="st3" d="M969.6,178.3v17l9.4-8.7h2.6v0.1l-10.1,9.3l11.2,10.4v0.1h-2.5l-10.7-9.7v9.7h-1.9v-28.1H969.6z"/>
			<path class="st3" d="M985.2,196.5c0-6,4.5-10.3,10.1-10.3s10.6,3.4,9.8,11.2h-17.9c0.4,4.7,4,7.4,8.1,7.4c2.6,0,5.7-1,7.2-3
				l1.4,1.1c-1.9,2.5-5.4,3.8-8.6,3.8C989.7,206.7,985.2,202.8,985.2,196.5z M1003.3,195.7c0-4.9-3.3-7.6-8-7.6
				c-4.1,0-7.6,2.8-8.1,7.6H1003.3z"/>
			<path class="st3" d="M1014.9,180.6v6h6.8v1.6h-6.8v12.1c0,2.7,0.6,4.6,3.7,4.6c1,0,2-0.3,3.1-0.8l0.7,1.6c-1.2,0.6-2.5,1-3.7,1
				c-4.2,0-5.6-2.5-5.6-6.4v-12.1h-4.2v-1.6h4.2v-5.8L1014.9,180.6z"/>
			<path class="st3" d="M1029.9,180.1c0,2.1-3.2,2.1-3.2,0C1026.7,178,1029.9,178,1029.9,180.1z M1027.3,186.5v19.9h2v-19.9H1027.3z
				"/>
			<path class="st3" d="M1037.8,186.6v3.5c1.5-2.7,4.3-3.9,7.1-3.9c5.3,0,9,3.3,9,8.8v11.5h-2V195c0-4.5-2.8-6.9-7.1-6.9
				c-4.1,0-7,3.1-7,7.2v11.1h-2v-19.9H1037.8z"/>
			<path class="st3" d="M1076,185.8l1.3,1.1l-1.9,2.3c1.4,1.5,2.5,3.5,2.5,6.8c0,3.5-2,7-5.3,8.4c3.5,1.2,5.4,3.7,5.4,7.1
				c0,5.3-4.2,7.9-9.4,7.9c-5.3,0-9.4-2.9-9.4-7.9h2c0,4.1,3.5,6,7.4,6s7.5-1.8,7.5-6c0-4.3-3.8-6-7.5-6c-5.7,0-9.3-4.3-9.3-9.6
				c0-6.2,4.2-9.7,9.3-9.7c2,0,4.1,0.7,5.6,1.8L1076,185.8z M1061.1,195.9c0,4.1,2.8,7.6,7.4,7.6c4.1,0,7.4-3.5,7.4-7.6
				c0-5-3.3-7.7-7.4-7.7C1064.4,188.2,1061.1,190.7,1061.1,195.9z"/>
		</g>
		<g>
			<path class="st1" d="M889.6,138.9h-26.3l0,26.8h-16.3V75.5c14.2,0,28.3-0.1,42.5-0.1C933.7,75.4,933.8,138.9,889.6,138.9z
				 M863.4,121.9l26.2,0c21.8,0,21.6-29,0-29h-26.3L863.4,121.9z"/>
		</g>
		<g>
			<g>
				<rect x="820.4" y="121.9" class="st4" width="69.8" height="17"/>
				
					<rect x="820.4" y="122.7" transform="matrix(6.123234e-17 -1 1 6.123234e-17 724.4423 986.0284)" class="st4" width="69.8" height="16.3"/>
			</g>
		</g>
		<path class="st0" d="M421.3,138.2c1.1,8.2,9.9,14.4,21.4,14.4c6,0,13.9-2.3,17.7-6.1l7.4,8.4c-7,7.2-18.4,10.7-28.4,10.7
			c-22.8,0-36.3-14.1-36.3-35.3c0-20.1,14.3-33.3,35.7-33.2c22.1,0,36.7,14.3,34.1,41.5L421.3,138.2z M455.9,123.8
			c-1.1-8.6-7.6-13.7-17-13.7c-8.8,0-16.2,5.1-18.6,13.6L455.9,123.8z"/>
	</g>
	<g>
		<linearGradient id="SVGID_1_" gradientUnits="userSpaceOnUse" x1="45.702" y1="142.3973" x2="212.3811" y2="142.3973">
			<stop  offset="0" style="stop-color:#96C623"/>
			<stop  offset="0.5027" style="stop-color:#00C94A"/>
			<stop  offset="0.9016" style="stop-color:#00CC6B"/>
		</linearGradient>
		<polygon class="st5" points="212.4,190.5 212.4,94.3 129,46.2 45.7,94.3 45.7,190.5 129,238.6 		"/>
		<polygon class="st4" points="212.4,190.5 212.4,94.3 129,238.6 45.7,94.3 45.7,190.5 129,238.6 		"/>
	</g>
	<polygon class="st6" points="69.9,114.3 69.9,108.2 129.2,74.1 182.9,105.1 172,111.4 128.7,86.6 86.6,110.9 129,136 182.9,105.1 
		188.1,108.2 188.1,176.8 134.6,207.6 134.6,194.7 177.1,170.1 177.1,121 134.6,145.7 134.6,207.6 129,210.7 69.9,176.5 69.9,114 
		81.2,120.7 81.2,170.3 123.5,195 123.5,145.4 	"/>
</g>
</svg>
