<svg id="Layer_1" data-name="Layer 1" xmlns="http://www.w3.org/2000/svg" viewBox="0 0 696.4 129.6"><title>logo-agencia-eplus</title><polygon points="59.9 100.1 88.5 83.5 88.5 50.5 59.9 67.1 59.9 100.1"/><polygon points="84.9 44 56 27.3 27.5 43.7 56 60.5 84.9 44"/><path d="M45.8,39.8v64.8l56,32.4,56.1-32.4V39.8L101.8,7.4Zm92.4,7.3,3.5,2.1V95.4l-36,20.7-3.8,2.2L62.2,95.2v-46l39.9-23Z" transform="translate(-45.8 -7.4)"/><polygon points="23.9 83.7 52.4 100.3 52.4 66.9 23.9 50.3 23.9 83.7"/><rect x="590.7" y="22.7" width="10.9" height="58.6"/><path d="M686.9,66.7c0,6.8-4.7,12.5-11.4,12.5-7.1,0-10.8-5.2-10.8-11.9V44.1h-11V67.5c0,13.7,7.7,21.8,18.4,21.8,6.3,0,10.5-2.1,15.1-6.6l.7,6h9.9V44.1H686.9Z" transform="translate(-45.8 -7.4)"/><path d="M723.2,61.2c-5.7-.3-8.3-2-8.3-4.8S717.8,52,723,52c4.3,0,7.9.9,11,3.9l6.3-7.3c-5.1-4.5-10.4-5.8-17.3-5.8-8.1,0-18.8,3.6-18.8,13.9,0,10.1,10,13.2,18.4,13.8,6.3.4,8.8,1.6,8.8,4.7s-4,5.4-8.1,5.3c-4.9-.1-12.2-2.7-15.3-6.2l-5.4,7.8c6.4,6.8,13.5,8,20.5,8,12.7,0,19.1-6.7,19.1-14.6C742.2,63.6,731.5,61.7,723.2,61.2Z" transform="translate(-45.8 -7.4)"/><path d="M214,50.3c-2.5-4.5-8.3-7.3-14.2-7.3-13-.1-23.2,7.9-23.2,23.2,0,15.6,9.7,23.8,22.9,23.7,4.9-.1,11.9-2.6,14.4-7.8l.5,6.5h10.4l.1-44.5H214.3ZM200.7,79.8c-7.4,0-13.2-5.1-13.2-13.6s6-13.4,13.2-13.4C218,52.9,218,79.8,200.7,79.8Z" transform="translate(-45.8 -7.4)"/><path d="M268.4,39.7l-4.2,5.6c-3.1-2.1-6.7-2.5-10.2-2.5-12.5,0-22.6,8.6-22.6,22.5s8.6,22.4,22.5,22.4c5.6,0,11.3,2.9,11.3,9s-4.9,9.5-11.3,9.5-11.7-3.9-11.7-9.6H231.3c0,12,9.6,19.9,22.5,19.9s22.3-7.5,22.3-19.8c0-5.6-1.8-11-9.2-14.7,7.3-3.3,9.4-11.1,9.4-16.6a19.79,19.79,0,0,0-4.7-13.2l4.9-6.3Zm-14.7,38c-6.4,0-11.6-4.7-11.6-12.4s5.2-12.5,11.6-12.6,11.6,4.9,11.6,12.6S260.1,77.7,253.7,77.7Z" transform="translate(-45.8 -7.4)"/><polygon points="261.3 24.8 266.5 30.1 277.7 30.1 277.7 29.6 264.4 17.1 258.4 17.1 245 29.6 245 30.1 256.1 30.1 261.3 24.8"/><path d="M360.6,44.5c-5.5,0-10.1,2.2-14.6,6.6l-.7-7.3h-9.9l-.1,45.8h10.9V66.9c0-6.8,4.7-12.5,11.4-12.5,7.1,0,10.8,5.2,10.8,11.9V89.7h11V66.4C379.4,52.4,371.1,44.5,360.6,44.5Z" transform="translate(-45.8 -7.4)"/><path d="M409.2,79.8c-6.9,0-12.6-4.5-12.6-13,0-7.8,5.4-13.2,12.8-13.2a13.52,13.52,0,0,1,9,3.5l7-7.3c-5-4.8-9.7-6-16-6-12.9,0-23.8,7.1-23.8,22.9s10.7,23.6,23.6,23.6a22.64,22.64,0,0,0,17.1-7L419,76.1A13.24,13.24,0,0,1,409.2,79.8Z" transform="translate(-45.8 -7.4)"/><polygon points="386.7 82.5 397.7 82.5 397.9 36.5 386.9 36.4 386.7 82.5"/><path d="M487.2,49.8c-2.5-4.5-8.3-7.3-14.2-7.3-13-.1-23.2,7.9-23.2,23.2,0,15.6,9.7,23.8,22.9,23.7,4.9-.1,11.9-2.6,14.4-7.8l.5,6.6H498l.1-44.5H487.5ZM473.9,79.5c-7.4,0-13.2-5.1-13.2-13.6s5.9-13.4,13.2-13.4C491.3,52.6,491.2,79.5,473.9,79.5Z" transform="translate(-45.8 -7.4)"/><rect x="386" y="22.2" width="12.7" height="11.4"/><path d="M534.9,43.4c-14.4-.1-24,8.7-24,22.3,0,14.3,9.1,23.8,24.4,23.8,6.7,0,14.4-2.4,19.1-7.2l-4.9-5.7c-2.5,2.6-7.9,4.1-11.9,4.1-7.8,0-13.7-4.2-14.4-9.7l34.7.3C559.6,53,549.8,43.4,534.9,43.4Zm-12.6,18a12.67,12.67,0,0,1,12.6-9.2c6.4,0,10.8,3.5,11.5,9.2Z" transform="translate(-45.8 -7.4)"/><path d="M306,44c-14.4-.1-24,8.7-24,22.3,0,14.3,9.1,23.8,24.4,23.8,6.7,0,14.4-2.4,19.1-7.2l-4.9-5.7c-2.5,2.6-7.9,4.1-11.9,4.1-7.8,0-13.7-4.2-14.4-9.7l34.7.3C330.7,53.6,320.8,44,306,44ZM293.5,61.9a12.67,12.67,0,0,1,12.6-9.2c6.4,0,10.8,3.5,11.5,9.2Z" transform="translate(-45.8 -7.4)"/><path d="M609.6,29.4H581V41.1h28.6c2.6,0,10.9,1.4,10.9,9.1s-7.7,10.2-7.7,10.2L612.7,72s19.2-1.4,19.2-22.5S609.6,29.4,609.6,29.4Z" transform="translate(-45.8 -7.4)"/><rect x="517.2" y="53.3" width="18" height="11.5"/><rect x="546.1" y="53.3" width="17.3" height="11.5"/><rect x="535.2" y="64.8" width="10.9" height="17.2"/><rect x="535.2" y="37.3" width="10.9" height="16"/></svg>