<?xml version="1.0" encoding="utf-8"?>
<!-- Generator: Adobe Illustrator 23.0.2, SVG Export Plug-In . SVG Version: 6.00 Build 0)  -->
<svg version="1.1" id="Layer_1" xmlns="http://www.w3.org/2000/svg" xmlns:xlink="http://www.w3.org/1999/xlink" x="0px" y="0px"
	 viewBox="0 0 366.7 108" style="enable-background:new 0 0 366.7 108;" xml:space="preserve">
<g>
	<path d="M37.7,40.2c0-3.4,2.8-6.2,6.2-6.2c3.4,0,6.2,2.8,6.2,6.2v4.3h8.3v-4.3c0-8-6.5-14.6-14.6-14.6c-8,0-14.6,6.5-14.6,14.6v4.3
		h8.3V40.2z"/>
	<path d="M61.9,44.5h-3.4v0h-8.3v0H37.7v0h-8.3v0H26c-1.5,0-2.8,1.3-2.8,2.8v26.5c0,1.5,1.3,2.8,2.8,2.8h35.9c1.5,0,2.8-1.3,2.8-2.8
		V47.3C64.7,45.8,63.4,44.5,61.9,44.5z M45.8,61.9v3.6c0,1-0.8,1.8-1.8,1.8c-1,0-1.8-0.8-1.8-1.8v-3.6c-1.1-0.6-1.9-1.8-1.9-3.2
		c0-2,1.7-3.7,3.7-3.7c2,0,3.7,1.7,3.7,3.7C47.6,60.1,46.9,61.3,45.8,61.9z"/>
	<path d="M24.9,38c0-1.4-1.1-2.5-2.5-2.5h-8.7c-1.4,0-2.5,1.1-2.5,2.5s1.1,2.5,2.5,2.5h8.7C23.8,40.6,24.9,39.4,24.9,38z"/>
	<path d="M26.9,26.4c0.5,0.4,1,0.6,1.6,0.6c0.7,0,1.5-0.3,2-0.9c0.9-1.1,0.7-2.7-0.3-3.6l-6.8-5.6c-1.1-0.9-2.7-0.7-3.6,0.3
		c-0.9,1.1-0.7,2.7,0.3,3.6L26.9,26.4z"/>
	<path d="M43.9,21c1.4,0,2.5-1.1,2.5-2.5V9.7c0-1.4-1.1-2.5-2.5-2.5c-1.4,0-2.5,1.1-2.5,2.5v8.7C41.4,19.8,42.5,21,43.9,21z"/>
	<path d="M59.4,27c0.6,0,1.1-0.2,1.6-0.6l6.8-5.6c1.1-0.9,1.2-2.5,0.3-3.6c-0.9-1.1-2.5-1.2-3.6-0.3l-6.8,5.6
		c-1.1,0.9-1.2,2.5-0.3,3.6C58,26.6,58.7,27,59.4,27z"/>
	<path d="M74.2,35.5h-8.7c-1.4,0-2.5,1.1-2.5,2.5s1.1,2.5,2.5,2.5h8.7c1.4,0,2.5-1.1,2.5-2.5S75.6,35.5,74.2,35.5z"/>
	<polygon points="93.4,44.3 85.5,44.3 85.5,76.6 105.9,76.6 105.9,69.8 93.4,69.8 	"/>
	<path d="M128.5,56.5c-1-1.1-2.2-1.9-3.6-2.4c-1.4-0.6-2.9-0.8-4.6-0.8c-1.7,0-3.3,0.3-4.8,0.9c-1.5,0.6-2.8,1.4-3.9,2.4
		s-2,2.3-2.6,3.8c-0.6,1.5-1,3.2-1,5c0,1.9,0.3,3.6,1,5.1c0.7,1.5,1.6,2.7,2.7,3.8c1.1,1,2.5,1.8,4,2.3c1.5,0.5,3.1,0.8,4.8,0.8
		c2.3,0,4.3-0.4,6.1-1.3c1.7-0.8,3.2-2,4.2-3.6l-5.2-3.3c-0.5,0.7-1.2,1.3-2,1.7c-0.8,0.4-1.8,0.7-3,0.7c-0.7,0-1.3-0.1-1.9-0.3
		c-0.6-0.2-1.2-0.5-1.7-0.9c-0.5-0.4-0.9-0.8-1.2-1.3c-0.3-0.5-0.5-1.1-0.6-1.7h16.5c0-0.3,0-0.6,0-0.9c0-0.3,0-0.6,0-0.9
		c0-1.9-0.3-3.7-0.8-5.2C130.3,58.8,129.5,57.5,128.5,56.5z M115.2,62.7c0-0.6,0.2-1.1,0.5-1.7c0.3-0.5,0.6-1,1.1-1.4
		c0.5-0.4,1-0.7,1.6-0.9c0.6-0.2,1.3-0.3,2-0.3c1.5,0,2.6,0.4,3.4,1.3c0.7,0.9,1.1,1.9,1.1,3.1H115.2z"/>
	<path d="M143.6,47.9h-7.3v6h-3.6v5.6h3.6v9.6c0,1.2,0.1,2.3,0.4,3.3s0.7,1.8,1.3,2.6c0.6,0.7,1.5,1.3,2.5,1.6
		c1,0.4,2.3,0.6,3.8,0.6c0.8,0,1.6-0.1,2.4-0.2c0.8-0.1,1.4-0.3,2-0.5l-0.1-5.5c-0.3,0.1-0.6,0.2-1,0.3c-0.4,0.1-0.8,0.1-1.2,0.1
		c-1.1,0-1.8-0.3-2.2-0.8c-0.4-0.5-0.6-1.3-0.6-2.4v-8.7h5.3v-5.6h-5.3V47.9z"/>
	<path d="M166.5,59c0.6-0.3,1.2-0.4,1.9-0.4c0.9,0,1.8,0.2,2.6,0.6c0.8,0.4,1.5,0.9,2.1,1.5l4.1-4.2c-1.1-1.1-2.5-1.9-4.1-2.4
		c-1.6-0.5-3.3-0.8-5-0.8c-1.1,0-2.2,0.1-3.3,0.4c-1.1,0.3-2.1,0.7-3,1.3c-0.9,0.6-1.7,1.4-2.2,2.3c-0.6,1-0.9,2.1-0.9,3.5
		c0,1.1,0.2,2,0.6,2.7c0.4,0.8,0.9,1.4,1.5,1.9c0.6,0.5,1.3,0.9,2.1,1.2c0.8,0.3,1.6,0.5,2.4,0.7c1.6,0.4,2.7,0.7,3.4,1
		c0.7,0.3,1.1,0.9,1.1,1.6c0,0.7-0.3,1.2-0.9,1.5c-0.6,0.3-1.2,0.4-1.8,0.4c-1.1,0-2.1-0.2-3.1-0.7c-1-0.5-1.8-1.1-2.5-1.8l-4.2,4.4
		c1.2,1.2,2.7,2,4.4,2.6c1.8,0.6,3.6,0.9,5.4,0.9c1.2,0,2.3-0.1,3.5-0.4c1.2-0.3,2.2-0.7,3.1-1.3c0.9-0.6,1.7-1.4,2.3-2.4
		c0.6-1,0.9-2.2,0.9-3.6c0-1.1-0.2-2-0.6-2.8c-0.4-0.8-1-1.5-1.7-2c-0.7-0.5-1.5-1-2.3-1.3s-1.7-0.6-2.6-0.8
		c-1.5-0.3-2.5-0.6-3.2-0.9c-0.7-0.3-1-0.7-1-1.4C165.6,59.7,165.9,59.2,166.5,59z"/>
	<polygon points="197.9,63.3 211.3,63.3 211.3,57 197.9,57 197.9,50.9 212.1,50.9 212.1,44.3 190.4,44.3 190.4,76.6 212.9,76.6 
		212.9,70 197.9,70 	"/>
	<path d="M238.3,56.2c-0.7-0.9-1.5-1.6-2.6-2.1c-1.1-0.5-2.4-0.8-3.9-0.8c-0.8,0-1.5,0.1-2.2,0.3c-0.7,0.2-1.3,0.5-1.9,0.8
		c-0.6,0.3-1.1,0.7-1.5,1.2c-0.4,0.5-0.8,1-1.1,1.4H225v-3.1h-7.2v22.7h7.5V64.3c0-0.6,0.1-1.3,0.3-1.8s0.4-1.1,0.8-1.6
		c0.3-0.5,0.8-0.8,1.3-1.1c0.5-0.3,1.1-0.4,1.8-0.4c0.7,0,1.2,0.1,1.7,0.4c0.4,0.3,0.8,0.6,1,1c0.2,0.4,0.4,1,0.5,1.5
		c0.1,0.6,0.2,1.2,0.2,1.8v12.4h7.5v-14c0-1.1-0.1-2.2-0.4-3.4C239.4,58.1,238.9,57.1,238.3,56.2z"/>
	<path d="M251.6,61.2c0.5-0.5,1-1,1.6-1.3c0.6-0.3,1.4-0.5,2.1-0.5c0.8,0,1.5,0.2,2.2,0.5c0.7,0.3,1.3,0.8,1.7,1.3l4.3-5
		c-0.5-0.5-1-0.9-1.6-1.3c-0.6-0.4-1.3-0.7-2.1-1c-0.7-0.3-1.5-0.5-2.3-0.6c-0.8-0.2-1.6-0.2-2.4-0.2c-1.8,0-3.4,0.3-5,0.8
		c-1.6,0.6-2.9,1.4-4.1,2.4c-1.1,1-2,2.3-2.7,3.8c-0.7,1.5-1,3.2-1,5c0,1.9,0.3,3.6,1,5.1c0.7,1.5,1.6,2.8,2.7,3.8
		c1.1,1,2.5,1.8,4.1,2.4c1.6,0.5,3.2,0.8,5,0.8c1.7,0,3.3-0.3,4.7-0.8c1.5-0.5,2.7-1.2,3.6-2.1l-4.1-5.1c-0.5,0.5-1.1,1-1.8,1.3
		c-0.7,0.3-1.5,0.4-2.3,0.4c-0.8,0-1.6-0.2-2.2-0.5c-0.7-0.3-1.2-0.7-1.7-1.3c-0.5-0.5-0.8-1.1-1.1-1.8c-0.2-0.7-0.4-1.4-0.4-2.2
		c0-0.8,0.1-1.5,0.4-2.2C250.8,62.3,251.2,61.7,251.6,61.2z"/>
	<path d="M280,53.3c-1.4,0-2.6,0.4-3.7,1.1c-1.1,0.7-1.9,1.7-2.5,2.8h-0.1v-3.3h-7.2v22.7h7.5V65c0-0.5,0.1-1,0.3-1.6
		c0.2-0.6,0.5-1.2,0.9-1.7c0.4-0.5,1-1,1.6-1.3c0.7-0.4,1.5-0.5,2.5-0.5c0.3,0,0.6,0,0.9,0c0.3,0,0.6,0.1,1,0.2l0.3-6.6
		c-0.2-0.1-0.4-0.1-0.7-0.1C280.6,53.3,280.3,53.3,280,53.3z"/>
	<path d="M296.5,68.5h-0.1l-5.1-14.6H283l9.5,22.3l-0.7,1.9c-0.4,1-0.8,1.7-1.3,2.3c-0.5,0.5-1.4,0.8-2.5,0.8c-0.4,0-0.8,0-1.2-0.1
		c-0.4-0.1-0.8-0.2-1.2-0.3l-0.8,6.3c0.5,0.2,1.2,0.3,1.9,0.4c0.7,0.1,1.5,0.1,2.2,0.1c1.4,0,2.7-0.2,3.7-0.5c1-0.3,2-0.8,2.7-1.5
		c0.8-0.7,1.4-1.4,2-2.4c0.6-0.9,1.1-2,1.5-3.2L309,53.9H301L296.5,68.5z"/>
	<path d="M333.3,56.8c-0.9-1.1-2.1-2-3.4-2.6c-1.3-0.6-2.8-1-4.5-1c-1.7,0-3.1,0.3-4.4,1s-2.2,1.5-2.9,2.4h-0.1v-2.8h-7.1v33.6h7.5
		V74.1h0.1c0.7,1,1.7,1.7,2.9,2.3c1.2,0.6,2.6,0.8,4,0.8c1.7,0,3.2-0.3,4.6-1c1.3-0.7,2.5-1.6,3.4-2.7c0.9-1.1,1.6-2.4,2.1-3.9
		c0.5-1.5,0.7-3,0.7-4.6c0-1.6-0.3-3.1-0.8-4.5C334.9,59.2,334.2,57.9,333.3,56.8z M328.6,67.3c-0.2,0.7-0.6,1.3-1,1.9
		c-0.4,0.5-1,1-1.7,1.3c-0.7,0.3-1.4,0.5-2.3,0.5c-0.9,0-1.6-0.2-2.3-0.5c-0.7-0.3-1.2-0.8-1.7-1.3c-0.5-0.5-0.8-1.2-1.1-1.9
		c-0.3-0.7-0.4-1.4-0.4-2.1s0.1-1.4,0.4-2.1c0.3-0.7,0.6-1.3,1.1-1.9c0.5-0.5,1-1,1.7-1.3c0.7-0.3,1.4-0.5,2.3-0.5
		c0.9,0,1.7,0.2,2.3,0.5c0.7,0.3,1.2,0.8,1.7,1.3c0.4,0.5,0.8,1.1,1,1.8c0.2,0.7,0.3,1.4,0.3,2.1S328.8,66.6,328.6,67.3z"/>
	<path d="M353.5,59.5v-5.6h-5.3v-6h-7.3v6h-3.6v5.6h3.6v9.6c0,1.2,0.1,2.3,0.4,3.3s0.7,1.8,1.3,2.6c0.6,0.7,1.5,1.3,2.5,1.6
		c1,0.4,2.3,0.6,3.8,0.6c0.8,0,1.6-0.1,2.4-0.2c0.8-0.1,1.4-0.3,2-0.5l-0.1-5.5c-0.3,0.1-0.6,0.2-1,0.3s-0.8,0.1-1.2,0.1
		c-1.1,0-1.8-0.3-2.2-0.8c-0.4-0.5-0.6-1.3-0.6-2.4v-8.7H353.5z"/>
	<path d="M160.1,48.5c0-2.8-1.8-4.8-4.3-4.8c-2.2,0-4,1.6-4,3.7c0,2.2,1.5,3.6,3.7,3.6c0.2,0,0.4,0,0.5-0.1c-0.4,1.6-1.9,2.8-3.4,3
		l-0.3,0v3.5l0.4,0c1.8-0.2,3.5-1,4.8-2.2C159.2,53.6,160.1,51.3,160.1,48.5z"/>
</g>
</svg>
