<svg id="Layer_1" data-name="Layer 1" xmlns="http://www.w3.org/2000/svg" viewBox="0 0 727.07 261.06"><title>logo-vtex</title><path d="M84.32,89.55c-.61-1.29-.93-2.06-1.32-2.79C75.76,72.94,68.41,59.19,61.31,45.31a23.27,23.27,0,0,1,9.91-31.39,22.37,22.37,0,0,1,3.19-1.37,24.3,24.3,0,0,1,7.69-1.31q114.33-.09,228.66,0A22.35,22.35,0,0,1,330.89,44C325.24,55.08,319.28,66,313.46,76.91L216.52,259.09c-4.59,8.65-11.75,13.36-21.56,13.16-9.2-.19-16-4.73-20.31-12.87q-11.75-22.11-23.43-44.31c-.44-.82-.94-1.61-1.62-2.8-.66,1.15-1.09,1.86-1.49,2.6q-9,17.07-18.09,34.16c-2.94,5.59-7.28,9-13.77,9s-10.9-3.23-13.87-8.84q-36.3-68.67-72.7-137.3c-5.32-10,.68-20.48,9.89-22.1a21,21,0,0,1,3.8-.23H84.32Zm65.8-.64H127.61c-9.07,0-18.15-.08-27.23,0-8.52.11-13,7.32-9.09,14.63q24.38,46,48.85,91.88a13,13,0,0,0,3.25,4c5.21,4.09,12.11,2.31,15.48-3.91q12.45-23.28,24.84-46.55,12.22-23,24.48-45.9c1.64-3.07,2.13-6.15.49-9.31-2-3.81-5.42-4.87-9.4-4.87Z" transform="translate(-27.68 -11.2)"/><path d="M705.69,121.56c2-3.18,3.65-5.88,5.3-8.59,4.66-7.52,9.31-15,13.87-22.59a5.14,5.14,0,0,1,4.82-2.85c6.93.07,13.86,0,20.79,0,3,0,3.54,1.12,1.86,3.73q-15.6,24.74-31.26,49.43a3.83,3.83,0,0,0,0,4.86q16.2,25.35,32.23,50.8c.3.47.62.93.93,1.42,1,1.93.5,3.25-1.62,3.27-8.12.09-16.25.14-24.37-.09-1.25,0-2.86-1.4-3.64-2.59-6.57-10.15-13-20.41-19.46-30.63-.51-.79-1.06-1.55-1.76-2.59-.8,1.26-1.46,2.24-2,3.25-5.59,9.62-11.27,19.22-16.76,28.87-1.55,2.69-3.38,4-6.66,3.88-6.36-.25-12.74-.07-19.11-.08-3.26,0-3.87-1.09-2.18-3.92q15.54-25.89,31.14-51.76a4.13,4.13,0,0,0,0-5.11Q672.07,116,656.6,91.59a12,12,0,0,1-.93-3.22,13.65,13.65,0,0,1,3.08-.78c7.17-.07,14.34.1,21.51-.1,2.92-.09,4.53,1.22,6,3.47,5.83,9.31,11.72,18.62,17.59,27.86C704.34,119.61,704.88,120.36,705.69,121.56Z" transform="translate(-27.68 -11.2)"/><path d="M370.47,87.72c3.18,0,6.36.06,9.55,0,2.16-.06,3.28.74,3.86,2.94q10.85,40.49,21.81,80.94c.38,1.42.62,2.94,2.49,3s2.17-1.6,2.54-3q10.81-40,21.6-80c1-3.72,1.2-3.86,5.06-3.86h17.69c3.35,0,4.12,1.06,3.22,4.25Q445.14,138.55,432,185c-3.42,12-14.9,19.07-27.22,17.3-10.91-1.56-17.39-7.63-20.37-18q-13.19-46.15-26.56-92.24c-.93-3.33-.2-4.3,3.34-4.32C364.26,87.71,367.36,87.72,370.47,87.72Z" transform="translate(-27.68 -11.2)"/><path d="M569,144.09c0-9-.2-18,.09-27a47.91,47.91,0,0,1,2-12.41c3.26-10.63,11.34-15.7,21.79-17.48,9.4-1.6,18.87-1.24,28.32-.61,5.23.35,10.43,1,15.66,1.52,2.14.2,3.08,1.31,3.06,3.44v12.67c0,2.79-.93,3.72-3.73,3.72h-30.1c-8.86,0-11.33,2.44-11.44,11.32v10.51c0,3.21,0,3.22,3.14,3.22h36.78c3.48,0,4.06.58,4.09,4v12.19c0,3.1-.82,3.95-4,4-4.46.07-8.92,0-13.38,0-8,0-15.93.08-23.89-.06-2.28,0-2.87.75-2.8,2.87.21,5.49,0,11,.41,16.46s3.08,7.8,8.77,7.84c10.51.08,21,0,31.55,0,4,0,4.65.64,4.65,4.74v11.23c0,3.11-.64,3.86-3.83,4.23-4.5.52-9,1.17-13.51,1.39-9.38.48-18.74.89-28.13-.33-14.83-1.93-24-10.83-24.9-25.81-.64-10.54-.12-21.15-.12-31.74Z" transform="translate(-27.68 -11.2)"/><path d="M501.48,153.94V112.65c0-4.1,0-4.1-4.22-4.1H475.77c-3,0-3.73-.79-3.73-3.86V91.31c0-2.79.84-3.67,3.73-3.68H552.7c2.91,0,3.65.77,3.66,3.73v13.38c0,3.13-.67,3.82-3.73,3.83H531.37c-4.94,0-4.16-.12-4.16,4v83.86c0,3.73-.88,4.66-4.59,4.66H505.77c-3.51,0-4.3-.81-4.31-4.39Q501.48,175.33,501.48,153.94Z" transform="translate(-27.68 -11.2)"/></svg>