<svg id="Layer_1" data-name="Layer 1" xmlns="http://www.w3.org/2000/svg" viewBox="0 0 86.63 86.75"><title>lupa-busca</title><path d="M92.14,97.13,76,81.11a39.07,39.07,0,0,0-2.88-51.82,38.87,38.87,0,0,0-55,0,39,39,0,0,0,0,55.14,38.93,38.93,0,0,0,51.82,2.89l16,16a4.15,4.15,0,0,0,3,1.3,3.91,3.91,0,0,0,3-1.3A4.49,4.49,0,0,0,92.14,97.13ZM76,56.86a29.66,29.66,0,0,1-9,21.36,30.52,30.52,0,0,1-21.36,9,29.66,29.66,0,0,1-21.36-9,30.52,30.52,0,0,1-9-21.36,29.66,29.66,0,0,1,9-21.36,30.25,30.25,0,0,1,21.36-8.95A29.66,29.66,0,0,1,67,35.5,30.25,30.25,0,0,1,76,56.86Z" transform="translate(-6.69 -17.89)"/></svg>