<svg id="Layer_1" data-name="Layer 1" xmlns="http://www.w3.org/2000/svg" viewBox="0 0 455.16 550.83"><title>nossas-lojas</title><path d="M257.11,33C131.42,33,29.53,134.89,29.53,260.58c0,172.83,227.58,323.25,227.58,323.25S484.69,433.41,484.69,260.58C484.69,134.89,382.81,33,257.11,33Zm0,404.46A176.88,176.88,0,1,1,434,260.58,176.87,176.87,0,0,1,257.11,437.46Z" transform="translate(-29.53 -33)"/><path d="M352.3,222.06s-34.75,14.87-51.84,14.87a8.11,8.11,0,0,1-8.1-8.11c0-.34.08-1.49.09-1.67.06-.37.11-.69.16-1.05a13.29,13.29,0,0,0,.21-2.3,11.66,11.66,0,0,0-.2-2.19,8.72,8.72,0,0,0-1.1-3.2,12,12,0,0,0-10.68-6.55,11.55,11.55,0,0,0-1.32.09h0a5.92,5.92,0,0,0-1.71.31A12.12,12.12,0,0,0,274,214c-15.1,8.39-49.68,40-66.17,42.65-45.66,7.46-52.23,12.74-54.06,22a8.21,8.21,0,0,0-.35,1.72c.82,12.24,15.92,18.2,46.21,18.2,16.7,0,61.91-7.79,100.11-12.84v12.8h64.84V266.19h-.07C364.79,242.56,352.3,222.06,352.3,222.06Z" transform="translate(-29.53 -33)"/></svg>