<svg id="Layer_1" data-name="Layer 1" xmlns="http://www.w3.org/2000/svg" viewBox="0 0 568.02 512.66"><defs><style>.cls-1{fill-rule:evenodd;}</style></defs><title>parcelamento</title><path class="cls-1" d="M54.4,245.05,469.1,151l-5.75-25.35a13.47,13.47,0,0,0-16-10.15L58.68,203a13.44,13.44,0,0,0-10.15,16c2,8.62,3.89,17.37,5.87,26Zm-3.44-65L444.52,91.5a34.9,34.9,0,0,1,41.69,26.37l41.25,182.28H502.81L484.1,217.6l-414.69,94L95.08,424.85l2.29,10a7.5,7.5,0,0,0,9,5.68l3.06-.7V464l-.45.13a29.13,29.13,0,0,1-34.67-21.9L24.46,221.82A34.83,34.83,0,0,1,51,180.06h0ZM153.11,306.73a35,35,0,0,0-34.86,34.92V568.44a34.91,34.91,0,0,0,34.86,34.86H556.64a35,35,0,0,0,34.92-34.86V341.65a35,35,0,0,0-34.92-34.92Zm395,101.52V362.08a5.31,5.31,0,0,0-5.36-5.36H439.54a5.4,5.4,0,0,0-5.37,5.36v46.17a5.39,5.39,0,0,0,5.37,5.36H542.78a5.39,5.39,0,0,0,5.36-5.36ZM472,548.2a5.41,5.41,0,0,1-5.43-5.36V532.11a5.41,5.41,0,0,1,5.43-5.36h70.68a5.4,5.4,0,0,1,5.36,5.36v10.73a5.39,5.39,0,0,1-5.36,5.36Zm-98.65,0a5.39,5.39,0,0,1-5.36-5.36V532.18a5.36,5.36,0,0,1,5.36-5.37h70.74a5.4,5.4,0,0,1,5.37,5.37v10.66a5.39,5.39,0,0,1-5.37,5.36Zm-98.58,0a5.39,5.39,0,0,1-5.36-5.36V532.18a5.36,5.36,0,0,1,5.36-5.37h70.74a5.4,5.4,0,0,1,5.37,5.37v10.66a5.39,5.39,0,0,1-5.37,5.36Zm-98.58,0a5.39,5.39,0,0,1-5.37-5.36V532.18a5.36,5.36,0,0,1,5.37-5.37H247a5.39,5.39,0,0,1,5.36,5.37v10.66A5.39,5.39,0,0,1,247,548.2Z" transform="translate(-23.54 -90.64)"/></svg>