<svg id="Layer_1" data-name="Layer 1" xmlns="http://www.w3.org/2000/svg" viewBox="0 0 90 84.59"><title>primeira-troca</title><path d="M94.6,36.11c-.48-.46-1.32-.46-2.35,0l-9.08,4a42.29,42.29,0,1,0-35.88,64.67A42,42,0,0,0,80.9,88.19a6.54,6.54,0,0,0-10.39-8,29.22,29.22,0,1,1-23.22-47A29.41,29.41,0,0,1,71,45.49L61.8,49.57c-1,.46-1.6,1.08-1.58,1.75s.6,1.26,1.66,1.67l21.65,8.38a2.17,2.17,0,0,0,1.66,0,2.12,2.12,0,0,0,1.15-1.2l8.38-21.65C95.13,37.41,95.09,36.58,94.6,36.11Z" transform="translate(-5 -20.21)"/></svg>