<svg id="Capa_1" data-name="Capa 1" xmlns="http://www.w3.org/2000/svg" viewBox="0 0 140.17 155.72"><title>troca</title><g id="_350._Repeat" data-name="350. Repeat"><path d="M42.74,121.52A56,56,0,0,1,63.84,23.6V9.15a70.09,70.09,0,0,0-32.3,121.26C42.82,140.91,49.83,126.89,42.74,121.52Zm80.85-96.77c-7.18-6.49-17.69,4-10.8,9.23a56,56,0,0,1-20.91,98.08v14.45A70.07,70.07,0,0,0,123.59,24.75ZM70,35.71,92.85,22.05c3.32-2,3.33-5.23,0-7.23L69.84.88c-3.31-2-6-.49-6,3.38l.12,28C64,36.17,66.71,37.69,70,35.71ZM85.88,120,62.86,134c-3.31,2-3.31,5.24,0,7.23l22.81,13.66c3.32,2,6,.47,6-3.41l.12-28C91.86,119.54,89.19,118,85.88,120Z" transform="translate(-7.78 0)"/></g></svg>