<svg id="Capa_1" data-name="Capa 1" xmlns="http://www.w3.org/2000/svg" viewBox="0 0 44 44"><title>twitter</title><path d="M24.83,2.83a22,22,0,1,0,22,22A22,22,0,0,0,24.83,2.83Zm9.81,17c0,.22,0,.44,0,.66A14.41,14.41,0,0,1,12.49,32.58a9.44,9.44,0,0,0,1.2.07A10.13,10.13,0,0,0,20,30.48,5.07,5.07,0,0,1,15.25,27a6,6,0,0,0,.95.09,4.93,4.93,0,0,0,1.34-.18,5.05,5.05,0,0,1-4.06-5v-.07a4.93,4.93,0,0,0,2.29.63,5,5,0,0,1-2.25-4.21,5.11,5.11,0,0,1,.68-2.55A14.4,14.4,0,0,0,24.64,21a4.91,4.91,0,0,1-.13-1.16,5.07,5.07,0,0,1,8.76-3.46,10.38,10.38,0,0,0,3.22-1.23A5.18,5.18,0,0,1,34.26,18a9.74,9.74,0,0,0,2.9-.8A10,10,0,0,1,34.64,19.79Z" transform="translate(-2.83 -2.83)"/></svg>