<svg id="Layer_1" data-name="Layer 1" xmlns="http://www.w3.org/2000/svg" viewBox="0 0 305.92 302.45"><title>X-selecao-atual-departamento</title><path d="M147.07,310.27a5.71,5.71,0,0,1-.29-6.61,68.59,68.59,0,0,1,6.86-8.13c7.27-7.55,12.21-14,19.77-21.25,6.23-6,14.75-5.94,21.1-.15,1.35,1.24,2.62,2.56,3.91,3.87q47,47.58,93.91,95.2a7.79,7.79,0,0,1,.52.65,5.55,5.55,0,0,0,8.41.56L342.59,333q29-29,57.94-57.9c7.36-7.32,15.93-7.18,23.24.13,5.3,5.29,10.77,10.43,15.83,15.94,3.36,3.65,6.16,7.8,9.19,11.75a6.17,6.17,0,0,1,.14,7.38,87.36,87.36,0,0,1-8.31,9.19c-26.66,27-52,54.15-78.84,81-5.34,5.34-10.9,10.46-17.07,16.22a5.64,5.64,0,0,0,.26,8.5,9.13,9.13,0,0,1,.73.65c31.57,31.3,64.3,61.48,94.56,94,3.3,3.55,6.48,7.31,9.46,11.06a5,5,0,0,1,0,6.28c-3.18,4-6,8.42-9.46,12.19-5,5.38-10.31,10.41-15.49,15.59-8.82,8.84-16.45,8.87-25.42,0-24.19-23.85-48.45-47.63-72.5-71.62-8.15-8.13-16-16.6-24.68-25.85a5.61,5.61,0,0,0-8.43.32,6.66,6.66,0,0,1-.5.56q-48,48.45-96.06,96.8c-9.12,9.17-17.15,9.11-26.32,0-4.49-4.45-9.18-8.74-13.36-13.48-4.38-5-8-10.61-12.12-15.81a2.18,2.18,0,0,1,.08-2.85c4-4.31,8.74-8.93,12.77-13,31.32-31.51,60.67-63.48,92.08-94.9l.14-.14a5.51,5.51,0,0,0,0-7.73h0C219.1,385.7,189,353.15,157.72,321.32,154.2,317.72,150.2,314.26,147.07,310.27Z" transform="translate(-144.89 -269.72)"/></svg>