<svg id="Capa_1" data-name="Capa 1" xmlns="http://www.w3.org/2000/svg" viewBox="0 0 95.02 95.02"><title>youtube</title><path d="M40.22,59.29,61.55,48.23,40.22,37.1Z" transform="translate(-1.37 -1.37)"/><path d="M48.88,1.37a47.51,47.51,0,1,0,47.5,47.5A47.51,47.51,0,0,0,48.88,1.37ZM81.24,64.73A8.47,8.47,0,0,1,74,71.32a223.78,223.78,0,0,1-25.12.93,223.87,223.87,0,0,1-25.12-.93,8.47,8.47,0,0,1-7.25-6.59c-1.17-5.08-1.17-10.62-1.17-15.86s0-10.77,1.19-15.85a8.48,8.48,0,0,1,7.24-6.6,226.36,226.36,0,0,1,25.13-.92A226,226,0,0,1,74,26.42,8.49,8.49,0,0,1,81.26,33c1.17,5.08,1.16,10.62,1.16,15.85S82.41,59.65,81.24,64.73Z" transform="translate(-1.37 -1.37)"/></svg>